<svg xmlns="http://www.w3.org/2000/svg" width="800" height="800" fill="none"><path d="M415.55 47.86c-2.35 3.2 24.9 20.68 52.7 57.03 16.42 21.46 30.99 40.51 38.02 69.12 5.64 22.94 1.1 30.36 10.37 47.52 12.41 23.02 36.7 39.59 42.33 35.42 2.2-1.62.56-5.7 0-12.1-2.76-31.35 25.97-52.36 19.87-59.61-3.57-4.25-17.84-2.25-25.92 4.32-3.56 2.9-5.85 6.63-8.64 6.05-3.54-.74-4.83-7.78-5.18-9.5-4.14-20.66-28.64-61.35-40.6-77.77-17.37-23.82-37.57-36.84-50.12-44.92-12.08-7.78-30.93-18.15-32.83-15.56z" fill="url(#paint0_linear_1_2)" transform="translate(-13.04 -8.73)"/><path d="M415.25 47.86c2.35 3.2-24.9 20.68-52.7 57.03-16.42 21.46-30.98 40.51-38.02 69.12-5.64 22.94-1.1 30.35-10.36 47.52-12.43 23.02-36.72 39.58-42.34 35.42-2.2-1.63-.57-5.7 0-12.1 2.77-31.36-25.97-52.36-19.87-59.61 3.57-4.25 17.84-2.25 25.92 4.32 3.56 2.9 5.84 6.62 8.64 6.05 3.54-.74 4.83-7.78 5.18-9.5 4.13-20.66 28.64-61.35 40.61-77.77 17.35-23.83 37.57-36.84 50.11-44.92 12.07-7.78 30.92-18.16 32.83-15.56z" fill="url(#paint1_linear_1_2)" transform="translate(-13.04 -8.73)"/><path d="M58.03 412.84c3.2 2.35 20.68-24.9 57.03-52.7 21.46-16.42 40.51-30.98 69.12-38.02 22.94-5.64 30.35-1.1 47.52-10.36 23.01-12.43 39.58-36.72 35.42-42.34-1.63-2.2-5.7-.57-12.1 0-31.36 2.76-52.36-25.97-59.61-19.87-4.25 3.57-2.26 17.84 4.32 25.92 2.9 3.56 6.62 5.85 6.05 8.64-.74 3.54-7.78 4.83-9.5 5.18-20.66 4.13-61.35 28.64-77.77 40.61-23.83 17.35-36.85 37.57-44.92 50.11-7.78 12.07-18.16 30.92-15.56 32.83z" fill="url(#paint2_linear_1_2)" transform="translate(-13.04 -8.73)"/><path d="M58.03 413.12c3.2-2.34 20.68 24.9 57.03 52.7 21.46 16.42 40.51 30.99 69.12 38.02 22.94 5.64 30.35 1.12 47.52 10.37 23.01 12.42 39.58 36.72 35.42 42.33-1.63 2.2-5.7.57-12.1 0-31.36-2.75-52.36 25.98-59.61 19.88-4.25-3.57-2.26-17.84 4.32-25.92 2.9-3.56 6.62-5.84 6.05-8.64-.74-3.55-7.78-4.83-9.5-5.19-20.66-4.13-61.35-28.63-77.77-40.6-23.83-17.35-36.85-37.57-44.92-50.12-7.78-12.07-18.16-30.92-15.56-32.83z" fill="url(#paint3_linear_1_2)" transform="translate(-13.04 -8.73)"/><path d="M415.25 770.22c2.35-3.2-24.9-20.68-52.7-57.02-16.42-21.47-30.98-40.52-38.02-69.12-5.64-22.94-1.1-30.36-10.36-47.52-12.43-23.02-36.72-39.6-42.34-35.43-2.2 1.63-.57 5.7 0 12.1 2.77 31.35-25.97 52.37-19.87 59.61 3.57 4.26 17.84 2.26 25.92-4.32 3.56-2.89 5.84-6.62 8.64-6.04 3.54.73 4.83 7.77 5.18 9.5 4.13 20.66 28.64 61.34 40.61 77.76 17.35 23.83 37.57 36.85 50.11 44.93 12.07 7.77 30.92 18.14 32.83 15.55z" fill="url(#paint4_linear_1_2)" transform="translate(-13.04 -8.73)"/><path d="M415.53 770.22c-2.34-3.2 24.91-20.68 52.7-57.02 16.42-21.47 30.99-40.52 38.02-69.12 5.64-22.94 1.1-30.36 10.37-47.52 12.42-23.02 36.72-39.6 42.33-35.43 2.2 1.63.57 5.7 0 12.1-2.76 31.35 25.98 52.37 19.88 59.61-3.57 4.26-17.84 2.26-25.92-4.32-3.56-2.89-5.84-6.62-8.64-6.04-3.55.73-4.83 7.77-5.19 9.5-4.13 20.66-28.63 61.34-40.6 77.76-17.35 23.83-37.57 36.85-50.12 44.93-12.07 7.77-30.92 18.14-32.83 15.55z" fill="url(#paint5_linear_1_2)" transform="translate(-13.04 -8.73)"/><path d="M780.48 413.07c-3.2-2.3-20.68 24.26-57.03 51.33-21.45 16-40.5 30.18-69.12 37.03-22.94 5.5-30.35 1.08-47.52 10.1-23.02 12.1-39.58 35.76-35.42 41.24 1.63 2.13 5.7.54 12.1 0 31.36-2.7 52.37 25.29 59.61 19.35 4.25-3.45 2.25-17.37-4.32-25.24-2.9-3.46-6.62-5.7-6.05-8.42.74-3.45 7.78-4.7 9.5-5.04 20.67-4.04 61.35-27.9 77.77-39.56 23.83-16.9 36.85-36.59 44.92-48.81 7.78-11.76 18.16-30.12 15.56-31.98z" fill="url(#paint6_linear_1_2)" transform="translate(-13.04 -8.73)"/><path d="M780.46 412.8c-3.2 2.33-20.68-24.92-57.03-52.71-21.46-16.42-40.5-30.98-69.12-38.02-22.93-5.64-30.36-1.1-47.52-10.37-23.01-12.42-39.58-36.72-35.42-42.33 1.62-2.2 5.7-.57 12.1 0 31.35 2.76 52.36-25.97 59.61-19.87 4.25 3.56 2.26 17.84-4.32 25.92-2.9 3.56-6.62 5.84-6.05 8.64.74 3.54 7.78 4.83 9.5 5.18 20.67 4.13 61.35 28.63 77.77 40.6 23.83 17.36 36.85 37.57 44.93 50.12 7.77 12.07 18.14 30.92 15.55 32.83z" fill="url(#paint7_linear_1_2)" transform="translate(-13.04 -8.73)"/><path d="M364.25 206.94c-7.7-11.23-3.05-21.7 20.74-99.36 19-62.1 22.9-77.76 30.24-77.76 7.77 0 11.23 17.66 29.37 76.04 23.76 76.42 30.49 86.89 22.47 99.36-17.75 27.57-84.4 28.66-102.82 1.72z" fill="url(#paint8_linear_1_2)" transform="translate(-13.04 -8.73)"/><path d="M210.24 464.1c-11.24 7.7-21.72 3.06-99.36-20.73-62.12-19-77.76-22.9-77.76-30.24 0-7.78 17.65-11.23 76.03-29.38 76.42-23.76 86.9-30.49 99.36-22.46 27.57 17.75 28.67 84.4 1.73 102.82z" fill="url(#paint9_linear_1_2)" transform="translate(-13.04 -8.73)"/><path d="M466.18 610.51c7.7 11.23 3.05 21.7-20.74 99.36-19 62.11-22.9 77.76-30.24 77.76-7.77 0-11.23-17.65-29.37-76.03-23.76-76.42-30.49-86.9-22.47-99.36 17.75-27.58 84.4-28.68 102.82-1.73z" fill="url(#paint10_linear_1_2)" transform="translate(-13.04 -8.73)"/><path d="M615.84 361.95c11.23-7.7 21.7-3.05 99.36 20.74 62.1 19 77.76 22.9 77.76 30.24 0 7.78-17.66 11.23-76.03 29.38-76.42 23.75-86.9 30.48-99.36 22.46-27.55-17.71-28.64-84.37-1.73-102.82z" fill="url(#paint11_linear_1_2)" transform="translate(-13.04 -8.73)"/><path d="M398.9 616.75c119.3 0 216-96.7 216-216s-96.7-216-216-216-216 96.7-216 216 96.7 216 216 216z" fill="#e5a700"/><path d="M398.9 573.55c95.43 0 172.8-77.37 172.8-172.8 0-95.44-77.37-172.8-172.8-172.8-95.44 0-172.8 77.36-172.8 172.8 0 95.43 77.36 172.8 172.8 172.8z" fill="#fffe00"/><path d="M479.25 472.9c-44.13 0-79.92-34.83-79.92-77.77s-35.79-77.76-79.92-77.76-79.92 34.82-79.92 77.76c0-85.89 71.57-155.52 159.84-155.52 88.28 0 159.84 69.63 159.84 155.52 0 42.94-35.79 77.76-79.92 77.76z" fill="#009deb"/><path d="M219.65 447.54l2.6 7.54-2.53 1.95c-.84.65-1.6 1.29-2.3 1.93-.5.46-.93.9-1.25 1.3a4 4 0 00-.98 2.8c.02.54.15 1.14.38 1.82l6.08-2.09c.32-.1.57-.27.78-.48.2-.23.32-.52.34-.9a9.27 9.27 0 00-.28-2.07l1.09-.37 3.64 10.63-1.08.37a15.3 15.3 0 00-.43-.98 5.2 5.2 0 00-.53-.92 1.2 1.2 0 00-.78-.5c-.3-.05-.6-.02-.94.1l-13.9 4.77c-.33.11-.58.26-.76.46-.19.19-.3.49-.34.9a11.86 11.86 0 00.18 2.17l-1.08.37-3.64-10.62 1.08-.37a9.25 9.25 0 001 1.82c.25.32.53.49.84.52.3.02.6-.02.89-.12l6.54-2.24-.31-.9a4.72 4.72 0 00-.55-1.1 2.6 2.6 0 00-1.03-.87 8.04 8.04 0 00-2.5-.82c-.78-.1-1.57-.15-2.35-.15a57.9 57.9 0 01-2.22-.07 5.85 5.85 0 01-2.23-.71 4.26 4.26 0 01-2-2.38 3.38 3.38 0 01-.04-2.44c.29-.7.8-1.17 1.53-1.42a2.7 2.7 0 012.11.03c.6.3 1.02.8 1.26 1.5.16.45.18.93.06 1.44-.11.5-.44 1.18-.98 2.01.38.18.9.28 1.58.28.66 0 1.24.01 1.75.04 1.04.04 1.85.16 2.45.33.59.18 1.12.44 1.58.78l.25-.09c-.1-1.41.1-2.67.59-3.8a9.6 9.6 0 012.16-3.04 110.65 110.65 0 002.5-2.38c.5-.5.8-.9.9-1.24.1-.34.14-.6.1-.8a13.04 13.04 0 00-.3-1.62z" fill="#a41206"/><path d="M215.78 428.5l2.51 11.05-1.11.25c-.16-.5-.38-1.08-.68-1.75-.32-.66-.58-.96-.8-.91-.07.01-.16.04-.25.08-.1.03-.21.1-.36.2l-3.8 2.69 1.59 7a55.72 55.72 0 003 .41c.58.06.99.08 1.24.07.24-.03.41-.05.5-.08.31-.06.52-.35.64-.86.1-.51.08-1.32-.07-2.42l1.11-.25 1.89 8.31-1.11.26c-.1-.31-.22-.66-.39-1.03a3.05 3.05 0 00-.55-.86 3.89 3.89 0 00-2.41-1.21l-8.8-1.49-9.72-1.66-.65-2.86a1428 1428 0 019.89-6.86c2.42-1.66 4.43-3.07 6.01-4.2.26-.2.49-.41.68-.66a3.18 3.18 0 00.6-1.97c0-.37-.03-.7-.07-.99zM210 441.03l-6.67 4.6 8 1.24z" fill="#a41206"/><path d="M197 427.36c-.1.28-.15.7-.18 1.25l-.07 1.06-1.13.13-2.05-18.43 1.13-.13a9.6 9.6 0 00.6 2.05c.16.35.39.58.67.67.29.1.59.13.9.1l14.58-1.63c.35-.03.64-.13.87-.28.22-.16.4-.42.52-.81.07-.24.12-.59.15-1.03.03-.45.04-.82.03-1.1l1.13-.13 1.24 11.2-1.13.12-.2-1.08c-.1-.47-.2-.8-.3-.98-.18-.34-.4-.56-.64-.67a1.77 1.77 0 00-.94-.1l-16.3 1.8.55 4.92a48.8 48.8 0 019.06.05c2.56.3 4.66.75 6.3 1.37 1.75.67 3.03 1.42 3.84 2.26a4.4 4.4 0 011.35 2.5c.07.66.04 1.2-.1 1.62-.13.43-.32.77-.56 1.02a2.1 2.1 0 01-.86.56c-.34.12-.65.2-.93.22-.93.1-1.67-.1-2.22-.62a2.96 2.96 0 01-.96-1.9c-.05-.52.06-1.05.36-1.58.29-.54.69-1.09 1.2-1.63a24.21 24.21 0 00-5.62-1.68 32.83 32.83 0 00-3.78-.46 24.07 24.07 0 00-4.11.13c-.64.07-1.16.19-1.57.35-.4.15-.68.44-.82.86z" fill="#a41206"/><path d="M214.5 382.54l-.22 11.26-1.15-.02c-.02-.33-.06-.74-.12-1.22a4.37 4.37 0 00-.2-1 1.55 1.55 0 00-.58-.79 1.82 1.82 0 00-.96-.25l-15.53-.31 18.12 7.51-.04 1.85a167.28 167.28 0 00-4.25 1.41l-14.38 4.97 12.64.25a12.4 12.4 0 002.77-.18c.63-.15 1.1-.4 1.4-.76.2-.24.41-.67.6-1.3a10 10 0 00.36-1.32l1.14.03-.18 8.93-1.14-.02c-.03-.25-.08-.64-.17-1.2a3.4 3.4 0 00-.51-1.37c-.27-.4-.72-.66-1.36-.81a14.2 14.2 0 00-2.78-.26l-10.3-.21a4.4 4.4 0 00-1.56.2 2.2 2.2 0 00-1 .69 2.9 2.9 0 00-.62 1.19c-.1.4-.16.82-.2 1.24l-1.14-.03.19-9.56 13.83-4.85-11.06-4.55a14.53 14.53 0 00-2.57-.7l.19-9.2 1.14.01a9.09 9.09 0 00.31 1.97c.12.39.31.65.59.78.27.12.57.19.9.2l14.72.29c.35 0 .65-.05.9-.16.24-.12.45-.37.63-.75.1-.2.18-.51.27-.95.08-.45.15-.8.18-1.03z" fill="#a41206"/><path d="M210.7 369.94c-1.49-.23-2.69 0-3.6.7-.92.7-1.5 1.85-1.75 3.45l-.09.76-.06.61 7.87 1.23c.39-.03.74-.25 1.05-.65.3-.41.5-.93.6-1.57a3.46 3.46 0 00-.8-2.96 5.14 5.14 0 00-3.22-1.57zm.68-5.74a5.53 5.53 0 014.3 3.22c.38.82.62 1.7.72 2.64.1.94.08 1.89-.07 2.85l-1.93 12.33-1.12-.17.05-1.13c.02-.48 0-.81-.05-1a1.36 1.36 0 00-.45-.82 1.92 1.92 0 00-.9-.34l-14.48-2.26a1.85 1.85 0 00-.89.05c-.26.08-.51.3-.73.64a12.36 12.36 0 00-.83 2l-1.13-.17 1.76-11.3 1.13.18a13.77 13.77 0 00.01 2.28c.07.39.23.66.48.83.25.17.54.28.85.33l5.66.88.19-1.47c.05-.54.12-1.07.2-1.57.19-1.23.48-2.37.86-3.42a9.28 9.28 0 011.44-2.68c.6-.74 1.3-1.28 2.1-1.63.8-.35 1.74-.44 2.83-.27zm7.81-9.67l-1.7 10.96-1.13-.18.06-1c.02-.4.01-.7-.03-.9a1.45 1.45 0 00-.45-.83 1.87 1.87 0 00-.88-.35l-14.56-2.27a1.8 1.8 0 00-.89.06c-.25.09-.5.3-.72.66-.16.23-.32.55-.48.96-.17.4-.29.72-.36.97l-1.13-.18 1.73-11.1 1.13.18a10.01 10.01 0 00.04 2.14c.07.38.23.66.48.83.25.16.53.27.85.32l14.55 2.27c.35.05.65.04.91-.05s.5-.3.72-.64a9.67 9.67 0 00.73-2.02z" fill="#a41206"/><path d="M224 341l-5.03 16.73-1.1-.33c.06-.24.14-.59.22-1.05.09-.47.12-.83.1-1.05a1.28 1.28 0 00-.33-.87c-.21-.2-.49-.36-.82-.46l-14.09-4.24c-.32-.1-.62-.12-.88-.07a1.5 1.5 0 00-.8.54 8.5 8.5 0 00-1.11 1.87l-1.1-.33 3.2-10.66 1.1.33a8.18 8.18 0 00-.21 1.97c.01.4.14.7.37.9.23.2.5.34.8.43l14.09 4.24c.38.11.77.1 1.17-.04.4-.15.7-.54.9-1.19.11-.4.24-.76.36-1.1a52.69 52.69 0 00.85-2.82l.38-1.38c.13-.45.12-.79-.03-1-.16-.24-.45-.42-.88-.55l-14.25-4.28c-.33-.1-.62-.12-.89-.07-.26.05-.53.24-.8.55-.19.21-.39.49-.6.84-.2.34-.36.63-.47.86l-1.1-.33 3.22-10.66 1.09.33a9.76 9.76 0 00-.26 2.13c.02.39.14.69.36.89.23.2.5.34.8.44l14.26 4.28c.5.15.9.1 1.24-.13.33-.25.59-.66.76-1.25l.4-1.32 6.28 1.89-.31 1.05a8.99 8.99 0 00-3.6.77c-1.25.53-2.05 1.12-2.41 1.77-.15.26-.31.64-.48 1.14l-.4 1.22z" fill="#a41206"/><path d="M234.94 314.59l-3.17 7.3-3.17-.25a33.63 33.63 0 00-3-.12c-.7 0-1.3.04-1.8.11-.52.07-1 .22-1.45.45-.43.22-.82.54-1.16.96a6.4 6.4 0 00-.95 1.6l5.9 2.56c.3.13.6.19.9.17.3-.03.59-.17.86-.43a9.15 9.15 0 001.2-1.72l1.04.46-4.47 10.3-1.05-.45c.09-.23.2-.57.34-1.02.14-.46.22-.8.23-1.03a1.3 1.3 0 00-.23-.9 1.97 1.97 0 00-.77-.56l-13.5-5.84a1.8 1.8 0 00-.86-.17c-.26.01-.55.16-.86.44-.23.2-.48.5-.75.89-.29.37-.48.65-.58.83l-1.04-.45 4.46-10.3 1.05.45a9.33 9.33 0 00-.48 2.02c-.03.4.05.72.26.95.2.21.45.38.74.5l6.34 2.76.38-.88c.16-.36.27-.75.34-1.18.06-.44 0-.88-.17-1.33a8.08 8.08 0 00-1.3-2.29 18.8 18.8 0 00-1.64-1.7 46.1 46.1 0 01-1.6-1.55 5.85 5.85 0 01-1.16-2.02 4.27 4.27 0 01.13-3.1c.4-.9.93-1.51 1.6-1.83a2.42 2.42 0 012.1-.03c.77.34 1.29.83 1.54 1.45a2.5 2.5 0 01-.09 1.96c-.18.43-.5.8-.92 1.1a7 7 0 01-2.08.83c.16.39.49.8.98 1.27.49.44.91.85 1.27 1.2a11.1 11.1 0 011.58 1.9c.32.53.53 1.08.65 1.64l.24.1a7.86 7.86 0 013-2.4 9.62 9.62 0 013.64-.8 99.71 99.71 0 003.45-.07c.7-.03 1.2-.13 1.5-.3.31-.2.51-.37.62-.52a13.11 13.11 0 00.86-1.42z" fill="#a41206"/><path d="M246.55 295.38l-5.6 9.63-1-.57.47-.97c.19-.43.3-.74.32-.93.05-.39.01-.7-.12-.93a1.88 1.88 0 00-.7-.65l-10.5-6.1 5.34 13.91a3 3 0 001.25.5c.25 0 .54-.12.86-.35.18-.13.42-.37.72-.7.29-.35.51-.63.67-.87l.99.58-5.58 9.6-1-.58c.12-.22.28-.54.47-.97.19-.44.3-.78.35-1a1.3 1.3 0 00-.13-.92 1.97 1.97 0 00-.7-.64l-12.7-7.4c-.3-.17-.58-.26-.85-.27a1.5 1.5 0 00-.9.34 9.84 9.84 0 00-1.52 1.56l-1-.58 5.61-9.63.99.57a9.36 9.36 0 00-.72 1.96c-.08.4-.03.72.15.97.18.24.4.43.68.6l10.28 5.97-5.33-13.91c-.44-.26-.79-.37-1.04-.35-.26.02-.54.14-.85.36a4.6 4.6 0 00-.81.73c-.28.3-.5.55-.67.76l-.98-.57 5.58-9.6.98.57a9.68 9.68 0 00-.74 2c-.08.4-.03.71.14.96.18.24.4.45.68.61l12.73 7.4c.3.18.59.27.87.29.27 0 .57-.1.9-.34a9.35 9.35 0 001.42-1.62z" fill="#a41206"/><path d="M260.95 277.14l-6.76 8.86-.91-.69.58-.9c.24-.4.39-.7.43-.89.1-.37.1-.69 0-.94-.11-.25-.31-.5-.6-.72l-9.66-7.37 3.55 14.47c.54.4.93.63 1.18.66.25.02.55-.06.9-.25a9.2 9.2 0 001.57-1.38l.91.7-6.74 8.82-.9-.7c.14-.2.33-.5.57-.9a5 5 0 00.47-.95c.11-.36.11-.67 0-.93a1.98 1.98 0 00-.62-.72l-11.69-8.93a1.8 1.8 0 00-.8-.37c-.26-.05-.57.02-.94.22-.27.15-.59.38-.94.68-.37.3-.62.53-.76.68l-.9-.7 6.76-8.86.9.7a9.39 9.39 0 00-.95 1.85c-.13.38-.12.7.03.98.14.26.34.48.59.67l9.45 7.22-3.55-14.47c-.4-.3-.73-.47-.98-.47-.26-.02-.55.06-.89.24-.28.14-.58.35-.9.62l-.75.68-.91-.7 6.74-8.82.9.7a9.74 9.74 0 00-.98 1.9c-.13.36-.12.68.02.95.14.27.34.5.6.7l11.7 8.93c.28.21.55.34.82.39.27.05.59-.03.95-.22a5 5 0 00.82-.65c.33-.3.6-.57.78-.78zm-24.14-10.65c.24.19.47.5.68.95.22.43.32.93.3 1.48a6.65 6.65 0 01-.42 2.07c-.26.72-.79 1.6-1.58 2.63a10.8 10.8 0 01-2.1 2.16c-.67.49-1.3.82-1.89.99-.57.16-1.08.2-1.53.12-.44-.1-.8-.24-1.06-.44-.4-.3-.62-.7-.67-1.16-.04-.46.1-.91.42-1.34.36-.46.76-.76 1.22-.9.45-.14.88-.06 1.27.24.22.17.43.42.62.77.19.33.32.57.39.74.46-.14.9-.37 1.33-.7a6.8 6.8 0 001.93-2.5c.23-.5.35-1 .36-1.54-.2-.03-.5-.1-.86-.2a2.6 2.6 0 01-.86-.37c-.39-.3-.57-.7-.56-1.18.02-.5.2-.96.53-1.4.33-.43.73-.68 1.18-.77.46-.08.89.04 1.3.35zm30.26-15.48l-.83.82c-.3-.17-.75-.35-1.33-.54a11.6 11.6 0 00-3.36-.64c-.5 0-.9.1-1.22.33a19.54 19.54 0 00-1.92 1.66l-2.12 2.09 11.5 11.7c.26.25.53.42.82.49.28.06.6.03.92-.11.2-.09.49-.26.86-.51.36-.26.73-.53 1.1-.82l.8.81-8.23 8.1-.8-.82.72-.87c.3-.37.48-.65.56-.84.15-.34.2-.65.12-.92a1.91 1.91 0 00-.51-.8l-10.28-10.46c-.23-.24-.48-.4-.74-.49-.26-.1-.59-.07-.98.08a12.37 12.37 0 00-1.86 1.11l-.8-.81 13.21-13zm12.04-14.79c1.39.09 2.74.46 4.04 1.12a12.35 12.35 0 015.7 6.82c.46 1.39.63 2.76.5 4.14-.13 1.43-.55 2.8-1.25 4.1a12.6 12.6 0 01-3.24 3.72 12.3 12.3 0 01-3.82 2.12c-1.37.46-2.75.65-4.14.55a10.16 10.16 0 01-4.02-1.11 10.75 10.75 0 01-3.5-2.9 11.86 11.86 0 01-2.23-4.14 10.74 10.74 0 01-.37-4.3 10.4 10.4 0 011.39-3.98 12.39 12.39 0 012.95-3.4c1.21-.99 2.5-1.7 3.89-2.16 1.38-.47 2.75-.66 4.1-.58zm6.43 13.97c-.22-.97-.6-1.96-1.16-2.95a22.4 22.4 0 00-2.17-3.16c-.76-.94-1.56-1.8-2.41-2.56-.85-.8-1.71-1.4-2.6-1.84a5.77 5.77 0 00-2.64-.61c-.88.02-1.73.35-2.53 1-1.38 1.12-1.9 2.62-1.56 4.5.34 1.89 1.47 4.02 3.4 6.4a22 22 0 002.54 2.69c.89.77 1.77 1.35 2.64 1.75.9.4 1.76.58 2.59.54a4.2 4.2 0 002.4-1.01 4.22 4.22 0 001.47-2.14 5.1 5.1 0 00.03-2.61z" fill="#a41206"/><path d="M301.5 244.5a12.3 12.3 0 01-3.98 1.7 9.76 9.76 0 01-7.85-1.55 11.65 11.65 0 01-3.12-3.3 11.74 11.74 0 01-1.72-4.2 10.26 10.26 0 011.84-8.16 12.18 12.18 0 018.72-4.99l.33-1.16 1.07-.7 4.22 6.31-1.08.7c-1.87-1.55-3.53-2.5-4.98-2.86a4.97 4.97 0 00-4.03.67 4.59 4.59 0 00-2.2 4.31c.06 1.88.89 4.04 2.47 6.5a16.2 16.2 0 002.7 3.29c.9.8 1.78 1.35 2.6 1.66a5.3 5.3 0 002.58.3 6.27 6.27 0 002.44-.96 6.21 6.21 0 002.46-2.91c.5-1.21.71-2.68.64-4.42l1.47-.05c.1.95.13 1.86.04 2.73a8.77 8.77 0 01-.61 2.47 9.65 9.65 0 01-4 4.62z" fill="#a41206"/><path d="M317.53 212.85a5.3 5.3 0 00-1.49 1.42c-.23.33-.37.7-.44 1.1-.06.4-.1.84-.13 1.33a194.1 194.1 0 00-.12 6.76c0 2.74-.04 4.75-.1 6.04a27.3 27.3 0 01-.4 4.08 9.4 9.4 0 01-.81 2.56 5.22 5.22 0 01-.99 1.4c-.37.37-.86.71-1.46 1.02-.98.5-1.87.66-2.67.47a2.5 2.5 0 01-1.9-3.16c.19-.66.63-1.16 1.31-1.52a3.06 3.06 0 011.9-.26c.7.1 1.58.4 2.62.9.3-.45.49-.98.59-1.6.1-.6.16-1.23.17-1.88-2.13-1.32-4.59-2.86-7.38-4.62a168.26 168.26 0 00-5.3-3.3c-.3-.16-.6-.3-.87-.42a3.15 3.15 0 00-1.15-.18 4.91 4.91 0 00-1.93.41l-.52-1.01 10.24-5.26.53 1.02c-.93.54-1.54.96-1.84 1.27-.3.3-.4.53-.33.67.05.1.16.2.3.3l.38.25a279.02 279.02 0 008.11 5.09c.01-1.44 0-2.63-.03-3.56l-.08-2.9a20.6 20.6 0 00-.13-2.06 3.34 3.34 0 00-.23-.92c-.13-.27-.48-.37-1.02-.3-.54.06-1.23.25-2.06.58l-.52-1.02 7.23-3.71zm17.81 11.53l-5.96-15.4-4.99 1.94c.97 2.8 1.62 5.88 1.95 9.2a32 32 0 01-.32 9.3l8.65-3.36c.37-.14.62-.35.73-.62.12-.28.1-.63-.06-1.06zm-5.6 5.11c-.41.16-.8.33-1.18.5-.38.15-.74.34-1.1.56-.66.42-1.19 1.27-1.6 2.56a9.57 9.57 0 00-.44 3.66l-1.02.4-2.4-6.2 1.92-.74c.53-2.32.73-5.1.62-8.37-.11-3.28-.56-5.94-1.35-7.99a3.88 3.88 0 00-.64-1.16c-.21-.25-.53-.4-.94-.47-.28-.04-.7 0-1.22.12-.52.1-.92.2-1.18.27l-.41-1.07 17.74-6.86.4 1.06a9.66 9.66 0 00-1.82 1.1c-.3.25-.46.53-.48.83-.02.3.03.6.14.9l5.36 13.82c.18.49.47.79.86.9.4.11.88.06 1.46-.16l1.28-.5 2.36 6.12-1.02.4a9.23 9.23 0 00-2.82-2.4c-1.19-.67-2.15-.95-2.88-.84-.3.04-.7.15-1.19.32l-1.2.44z" fill="#a41206"/><path d="M364.17 218.85l-10.93 2.94-.3-1.1c.5-.18 1.08-.43 1.73-.76.64-.33.94-.6.88-.83a1.32 1.32 0 00-.1-.24c-.03-.1-.1-.21-.21-.35l-2.83-3.7-6.93 1.86a53.28 53.28 0 00-.3 3.02c-.03.58-.04.99-.02 1.23.04.25.07.42.1.5.08.31.37.51.88.6.52.09 1.33.03 2.42-.16l.3 1.1-8.24 2.22-.3-1.1a8 8 0 001.01-.43c.38-.2.66-.39.84-.59.33-.33.58-.7.76-1.1.18-.4.3-.85.36-1.35l1.14-8.85c.4-2.95.82-6.21 1.29-9.78l2.83-.76c3.07 4.05 5.48 7.26 7.24 9.62 1.75 2.36 3.23 4.3 4.43 5.84.2.25.43.47.68.65a3.2 3.2 0 002 .53c.36-.02.69-.05.98-.11zm-12.72-5.29l-4.86-6.49-.92 8.05z" fill="#a41206"/><path d="M377.62 201.31a5.71 5.71 0 01-1.87 5.46 9.44 9.44 0 01-2.79 1.66c-1.07.42-2.3.74-3.68.97l-1.68.27.94 5.77c.06.35.17.64.34.88.18.23.46.4.85.49a11.41 11.41 0 002.1.09l.2 1.12-11.12 1.82-.19-1.13 1.1-.3c.45-.13.76-.25.93-.36.35-.21.57-.44.65-.68.08-.24.1-.56.03-.96l-2.36-14.47a2.03 2.03 0 00-.32-.84c-.16-.23-.44-.4-.85-.5a13.52 13.52 0 00-2.16-.15l-.2-1.12 11.33-1.86c2.65-.43 4.7-.33 6.15.3 1.45.63 2.31 1.8 2.6 3.54zm-5.52 1.66c-.25-1.54-.75-2.63-1.5-3.27-.74-.65-1.9-.85-3.5-.59l-1.2.2 1.48 9 .6-.1c1.58-.25 2.73-.81 3.43-1.67.7-.86.94-2.06.69-3.57zm17.15 13.93c-1.52.1-2.95-.06-4.31-.46a9.74 9.74 0 01-6.1-5.16 11.65 11.65 0 01-1.14-4.4c-.1-1.61.08-3.11.54-4.52a10.27 10.27 0 015.56-6.24 12.2 12.2 0 0110.05-.11l.86-.87 1.27-.08.63 7.56-1.29.09c-.88-2.26-1.87-3.9-2.96-4.92a4.97 4.97 0 00-3.85-1.37 4.59 4.59 0 00-4.02 2.7c-.85 1.67-1.18 3.96-.99 6.88.11 1.64.36 3.04.76 4.19.41 1.14.9 2.04 1.47 2.72a5.34 5.34 0 004.71 1.85 6.22 6.22 0 003.56-1.35c1.03-.81 1.93-2 2.7-3.56l1.31.68a12.4 12.4 0 01-1.28 2.4 9.1 9.1 0 01-1.74 1.87 9.62 9.62 0 01-5.74 2.1z" fill="#a41206"/><path d="M416.08 201.68l-1.13-.03c-.28-.9-.74-1.87-1.38-2.9-.64-1.03-1.24-1.6-1.8-1.7a19.46 19.46 0 00-2.34-.2l-.69-.02-.46 16.3c-.01.35.04.66.16.94.12.26.37.48.73.65.23.1.57.2 1.03.3.48.1.88.18 1.21.23l-.03 1.14-11.58-.33.03-1.14 1.2-.08c.51-.05.86-.1 1.05-.18.39-.14.65-.35.78-.6.14-.27.2-.58.22-.94l.46-16.44-.69-.02a19.6 19.6 0 00-2.34.08c-.57.06-1.2.6-1.9 1.59-.7 1-1.21 1.93-1.54 2.81l-1.13-.03.17-5.94 20.14.56z" fill="#a41206"/><path d="M432.96 209.46c.57.5 1 1.1 1.3 1.8.3.7.4 1.47.28 2.34a5.03 5.03 0 01-1.01 2.57 4.59 4.59 0 01-2.11 1.45c-.93.33-1.98.51-3.14.55a26.4 26.4 0 01-4.04-.25l-10.69-1.4.15-1.14 1.15.02c.46 0 .79-.02.98-.08.38-.1.65-.25.8-.47.17-.22.28-.52.33-.9l1.9-14.5a2.1 2.1 0 00-.04-.9c-.08-.24-.31-.47-.7-.7a5.39 5.39 0 00-1-.44c-.38-.14-.72-.26-1.01-.34l.14-1.13 11.18 1.46c2.82.37 4.8 1.03 5.94 1.96a3.8 3.8 0 011.42 3.67 3.78 3.78 0 01-2.04 2.99c-.52.3-1.13.53-1.82.7-.7.18-1.43.3-2.2.38l-.04.28c.75.17 1.5.45 2.28.81a8 8 0 012 1.27zm-3.85-6.8a3.6 3.6 0 00-.63-2.8c-.55-.72-1.47-1.17-2.76-1.34l-.72-.07-.76-.07-1 7.63.75.1c1.57.2 2.77 0 3.6-.63a4.02 4.02 0 001.52-2.83zm-.29 10a4.2 4.2 0 00-.84-3.46c-.75-.87-1.92-1.42-3.52-1.62a23.11 23.11 0 00-1.41-.13l-1 7.53c.05.36.28.7.7 1.02.42.3.96.49 1.6.58a3.67 3.67 0 002.96-.8 4.62 4.62 0 001.51-3.12z" fill="#a41206"/><path d="M453.93 208.02l-1.09-.25a7.8 7.8 0 00-.89-2.67 3.96 3.96 0 00-1.69-1.87 6.17 6.17 0 00-1.17-.39c-.5-.13-.91-.24-1.25-.31l-2.94-.68-1.8 7.82 2.08.48c.52.12 1.01.17 1.47.14.46-.02.9-.17 1.34-.44a6.84 6.84 0 001.7-2.34l1.08.25-1.95 8.45-1.08-.25c.03-.42 0-.95-.1-1.6a4.18 4.18 0 00-.37-1.41 2.45 2.45 0 00-.95-.96c-.4-.23-.88-.41-1.44-.54l-2.08-.48-1.35 5.84c-.14.6-.2 1.1-.2 1.48 0 .38.12.69.32.93.2.24.5.43.89.58a25.11 25.11 0 002.88.74 11.33 11.33 0 002.4.24c.38-.01.68-.09.89-.23a12.1 12.1 0 002.03-1.77c.8-.83 1.34-1.46 1.63-1.9l1.04.25-1.84 6.22-19-4.39.26-1.11 1.1.14c.48.04.82.05 1.02.02.4-.07.69-.2.86-.4a2 2 0 00.4-.86l3.3-14.29c.07-.34.08-.63.03-.88s-.26-.51-.61-.78a5.26 5.26 0 00-.97-.56c-.43-.2-.75-.34-.97-.42l.25-1.11 17.96 4.14z" fill="#a41206"/><path d="M474.08 231.42l-10.6-3.74.39-1.08 1.04.28c.45.11.77.17.97.15.39-.02.68-.11.89-.29.21-.18.38-.45.5-.8l2.38-6.76-8.37-2.95-2.33 6.6a1.9 1.9 0 00-.1.91c.05.3.21.58.49.83a9.26 9.26 0 001.8 1.07l-.39 1.08-10.6-3.74.39-1.08 1.04.27c.47.1.82.16 1.04.16.38 0 .67-.1.88-.3.22-.2.39-.47.5-.8l4.9-13.87c.11-.32.15-.62.1-.88-.03-.26-.2-.54-.5-.83a5.66 5.66 0 00-.93-.69c-.4-.25-.7-.42-.88-.5l.38-1.08 10.6 3.73-.38 1.08a9.4 9.4 0 00-2.06-.34c-.4 0-.7.1-.92.33-.2.22-.36.48-.46.77l-2.07 5.86 8.38 2.95 2.01-5.72c.12-.32.15-.61.11-.88a1.58 1.58 0 00-.51-.83c-.2-.2-.49-.41-.86-.65a7.92 7.92 0 00-.89-.52l.38-1.08 10.6 3.74-.38 1.07a9.77 9.77 0 00-2.11-.35c-.4 0-.7.1-.9.31a2.1 2.1 0 00-.48.78l-4.9 13.89c-.12.33-.16.63-.12.9.04.28.2.55.5.83.19.17.48.37.87.59.4.22.72.39.98.5z" fill="#a41206"/><path d="M494.51 242.07l-10.04-5.03.5-1.02 1 .4c.44.18.75.27.95.28.38.03.7-.03.92-.18.23-.16.43-.4.6-.73l3.2-6.4-7.93-3.98-3.14 6.26c-.15.3-.22.6-.22.89.02.3.14.6.38.88a9.12 9.12 0 001.65 1.28l-.5 1.02-10.05-5.03.5-1.02c.23.1.56.24 1 .4.46.16.8.26 1.02.28.38.05.68-.01.92-.18.24-.17.43-.42.6-.73l6.58-13.15c.15-.3.22-.6.21-.86 0-.26-.13-.56-.39-.88a11.84 11.84 0 00-1.64-1.42l.5-1.02 10.05 5.03-.51 1.02a9.42 9.42 0 00-2-.6c-.4-.05-.72.02-.96.22-.22.19-.4.43-.55.7l-2.78 5.56 7.94 3.97 2.71-5.42c.16-.3.23-.6.22-.86a1.58 1.58 0 00-.4-.89 5.39 5.39 0 00-.78-.75 6.8 6.8 0 00-.81-.63l.51-1.02 10.05 5.03-.51 1.02a9.37 9.37 0 00-2.05-.62c-.4-.05-.7.02-.94.2a2.1 2.1 0 00-.57.72l-6.6 13.16c-.15.32-.23.61-.22.89 0 .27.13.57.39.88a10 10 0 001.7 1.31z" fill="#a41206"/><path d="M507.73 244.31c.85-1.23 1.17-2.41.94-3.53-.23-1.13-1-2.16-2.33-3.08l-.64-.41-.52-.33-4.55 6.54c-.14.36-.1.77.13 1.22.23.45.62.86 1.15 1.23.96.66 1.96.86 3 .57a5.13 5.13 0 002.82-2.21zm4.86 3.13a5.52 5.52 0 01-4.77 2.46 8.4 8.4 0 01-2.7-.52 11 11 0 01-2.52-1.31l-10.23-7.11.65-.94 1 .55c.4.22.72.35.91.39.37.09.68.07.93-.05.25-.13.48-.34.7-.66l8.36-12.02c.19-.27.3-.54.34-.82.04-.27-.04-.59-.26-.94a6.03 6.03 0 00-.7-.88 13.1 13.1 0 00-.73-.74l.65-.94 9.38 6.52-.65.94a13.9 13.9 0 00-2.06-.99c-.38-.1-.7-.08-.96.07a2.1 2.1 0 00-.66.62l-3.27 4.7 1.24.8 1.32.87a18.4 18.4 0 012.7 2.27 9.3 9.3 0 011.78 2.47c.4.86.58 1.73.54 2.6a5 5 0 01-1 2.66zm5.27 11.23l-9.1-6.32.66-.93.86.5c.35.19.63.31.84.36.38.08.69.07.93-.05.25-.12.49-.33.7-.63l8.4-12.09c.2-.28.3-.55.33-.82.03-.26-.06-.57-.27-.93a5.36 5.36 0 00-.66-.85 8.15 8.15 0 00-.7-.75l.64-.93 9.22 6.4-.66.94a9.67 9.67 0 00-1.93-.9c-.38-.11-.7-.1-.96.06-.26.15-.48.36-.66.63l-8.4 12.07c-.2.29-.31.57-.35.84-.03.27.05.58.26.93a10.98 10.98 0 001.5 1.54z" fill="#a41206"/><path d="M534.17 274.2l-8.24-7.52.77-.84.85.65c.38.28.66.45.84.51.37.14.68.17.94.08.26-.08.52-.26.77-.54l8.19-8.97-14.73 2.27a3 3 0 00-.75 1.12c-.05.25 0 .56.16.92.1.2.27.49.54.85.27.35.5.63.7.84l-.77.84-8.2-7.48.77-.85c.18.16.47.38.85.66.39.28.7.46.9.55.35.14.66.17.93.07.28-.1.54-.28.77-.54l9.91-10.87c.23-.25.38-.5.45-.77.07-.25.02-.57-.14-.95a5.65 5.65 0 00-.6-1 8.6 8.6 0 00-.6-.82l.77-.84 8.23 7.51-.77.85a9.35 9.35 0 00-1.76-1.11c-.37-.17-.7-.19-.98-.06-.27.12-.51.3-.72.53l-8.02 8.79 14.73-2.28c.34-.37.53-.69.56-.94.03-.25-.02-.55-.17-.9-.12-.3-.3-.6-.54-.95l-.61-.81.77-.85 8.2 7.49-.77.84a9.87 9.87 0 00-1.8-1.15c-.36-.16-.68-.18-.96-.06-.28.12-.52.3-.74.53l-9.92 10.88c-.24.26-.4.52-.46.79-.07.26-.03.58.13.95.11.23.3.53.57.88.28.36.52.64.72.85zm12.71-23.12c-.2.22-.53.42-1 .6-.45.17-.95.23-1.5.17a6.65 6.65 0 01-2.03-.6c-.7-.33-1.52-.93-2.48-1.81a10.8 10.8 0 01-1.97-2.27 6.36 6.36 0 01-.81-1.98 3.28 3.28 0 010-1.53c.14-.44.32-.78.54-1.02.34-.37.74-.56 1.2-.57.48 0 .91.17 1.3.53.44.4.7.83.8 1.3.1.46-.02.88-.35 1.25-.19.2-.46.38-.82.54-.34.16-.6.27-.77.33.1.47.3.93.58 1.38a6.8 6.8 0 002.33 2.14c.47.27.97.44 1.5.5.05-.2.14-.49.27-.85s.28-.64.45-.82c.33-.36.73-.5 1.22-.45.49.06.93.28 1.34.65.4.37.62.78.66 1.24.05.46-.1.89-.46 1.27zm18.69 30.74c-.16-.18-.41-.4-.75-.64a4.3 4.3 0 00-.95-.53 2.78 2.78 0 00-1.17-.19c-.4.02-.84.07-1.32.15-1.74.3-3.95.73-6.64 1.3-2.68.56-4.65.95-5.92 1.17-1.65.29-3 .44-4.08.46a9.4 9.4 0 01-2.67-.26 5.25 5.25 0 01-1.59-.67c-.43-.29-.86-.7-1.3-1.21a3.85 3.85 0 01-1-2.52 2.5 2.5 0 012.69-2.52c.67.05 1.26.37 1.75.97.39.47.6 1.07.65 1.8.05.7-.05 1.62-.32 2.75.5.19 1.05.27 1.67.24.62-.03 1.25-.1 1.88-.23.85-2.35 1.84-5.08 2.98-8.18a155.5 155.5 0 002.1-5.87 3.49 3.49 0 00.18-2.11 4.94 4.94 0 00-.81-1.8l.88-.72 7.29 8.92-.88.72a9.6 9.6 0 00-1.63-1.53c-.36-.22-.6-.28-.73-.17a.94.94 0 00-.24.36l-.15.4a276.36 276.36 0 00-3.28 9c1.41-.29 2.57-.55 3.47-.77l2.83-.68c.9-.22 1.56-.41 1.98-.56.43-.16.71-.3.85-.42.24-.19.26-.54.08-1.06a8.38 8.38 0 00-1-1.9l.89-.72 5.14 6.3z" fill="#a41206"/><path d="M561.93 312.93l-6.07-9.44.96-.62.65.85c.29.38.51.62.67.72.32.23.61.33.89.32.27-.02.57-.12.88-.33l6.02-3.86-4.8-7.46-5.88 3.78c-.28.18-.49.4-.64.66-.14.26-.18.58-.12.94a9.4 9.4 0 00.76 1.94l-.96.62-6.06-9.43.96-.62c.14.2.35.48.65.85.3.37.55.63.73.76.3.23.6.33.88.31.3-.03.59-.14.88-.33l12.36-7.94c.29-.18.5-.4.62-.62.13-.23.17-.55.11-.96a8.71 8.71 0 00-.7-2.06l.97-.62 6.07 9.44-.96.62a9.6 9.6 0 00-1.42-1.53c-.31-.25-.62-.35-.93-.3-.3.04-.57.15-.83.32l-5.22 3.36 4.8 7.45 5.09-3.27c.29-.19.5-.4.62-.63.13-.23.17-.56.1-.97a5.34 5.34 0 00-.27-1.04 7.97 7.97 0 00-.38-.96l.96-.61 6.07 9.43-.96.62a9.67 9.67 0 00-1.45-1.57c-.3-.25-.6-.35-.9-.3-.3.03-.59.14-.86.32l-12.37 7.95c-.3.19-.5.4-.64.64s-.18.56-.12.96a11.22 11.22 0 00.8 2z" fill="#a41206"/><path d="M571.8 334.05l-4.84-10.04 1.03-.5.54.93c.25.4.45.66.6.79.28.26.56.4.83.42.28.02.59-.05.92-.21l10.94-5.27-14.5-3.4c-.61.3-.98.55-1.12.76-.14.22-.2.52-.2.92a9.82 9.82 0 00.53 2.03l-1.03.5-4.82-10.01 1.03-.5.55.93c.26.4.47.68.63.84.27.27.55.4.83.42.3 0 .6-.07.92-.22l13.26-6.38c.3-.15.54-.33.7-.54.15-.21.23-.52.22-.94 0-.31-.06-.7-.18-1.15-.1-.46-.18-.79-.26-.98l1.03-.5 4.84 10.05-1.03.5a9.26 9.26 0 00-1.22-1.7c-.28-.29-.58-.43-.89-.42-.3.02-.58.09-.86.23l-10.72 5.15 14.5 3.4c.46-.23.75-.45.87-.67.13-.22.2-.52.19-.9 0-.31-.05-.67-.15-1.08-.1-.4-.18-.73-.26-.98l1.03-.5 4.81 10-1.03.5a9.87 9.87 0 00-1.24-1.74c-.28-.28-.56-.42-.87-.41-.3 0-.6.07-.88.21l-13.27 6.39c-.32.15-.56.34-.72.56-.17.22-.24.53-.23.94a11.34 11.34 0 00.54 2.08z" fill="#a41206"/><path d="M585.53 346.18c-.2.72-.54 1.38-1.03 1.96a4.3 4.3 0 01-1.95 1.3c-1 .36-1.9.44-2.75.26a4.57 4.57 0 01-2.23-1.22 10.22 10.22 0 01-1.9-2.55 25.51 25.51 0 01-1.6-3.71l-3.56-10.15 1.07-.38.5 1.03c.2.41.38.7.51.84.26.3.52.46.78.5.28.05.6.01.95-.11l13.77-4.84c.33-.11.59-.26.77-.44.19-.18.3-.49.33-.93.01-.33 0-.7-.06-1.1a15 15 0 00-.16-1.05l1.08-.38 3.72 10.62c.94 2.67 1.25 4.72.93 6.17a3.8 3.8 0 01-2.62 2.91c-.67.23-1.3.3-1.9.22a4.15 4.15 0 01-1.69-.7 6.9 6.9 0 01-1.45-1.3c-.46-.53-.9-1.13-1.32-1.79l-.26.1c.17.74.28 1.54.3 2.4a8.3 8.3 0 01-.23 2.34zm4.32-6.5a3.6 3.6 0 002.21-1.81c.4-.82.38-1.84-.05-3.06a63.3 63.3 0 00-.55-1.38l-7.24 2.53.25.72c.52 1.49 1.25 2.46 2.19 2.93.94.46 2 .48 3.19.07zm-9.04 4.25c1.36-.47 2.26-1.24 2.7-2.3.44-1.07.4-2.36-.13-3.87-.06-.18-.16-.4-.28-.7-.1-.28-.19-.48-.25-.62l-7.14 2.51c-.31.2-.51.56-.6 1.08a3.5 3.5 0 00.2 1.69 3.66 3.66 0 002.04 2.27 4.6 4.6 0 003.46-.06z" fill="#a41206"/><path d="M596.05 364.47l-.26-1.08a7.8 7.8 0 002-1.98 4 4 0 00.93-2.34c0-.3-.06-.7-.17-1.22l-.27-1.26-.7-2.94-7.8 1.84.49 2.09c.12.52.3.98.52 1.38.22.4.55.73.99 1 .27.17.7.3 1.3.38.61.1 1.13.13 1.55.1l.26 1.09-8.44 1.99-.26-1.08c.39-.16.85-.42 1.4-.8.55-.37.91-.69 1.1-.95.26-.4.4-.82.43-1.28.03-.46-.02-.97-.15-1.53l-.5-2.08-5.82 1.38c-.61.14-1.09.3-1.43.47a1.5 1.5 0 00-.69.7 2.1 2.1 0 00-.13 1.06c.05.43.15 1 .32 1.71l.3 1.2a11.1 11.1 0 00.85 2.27c.17.32.37.55.6.68.57.35 1.4.7 2.48 1.04 1.1.34 1.9.55 2.42.62l.25 1.04-6.4 1.1-4.47-18.97 1.1-.27c.09.27.21.62.38 1.06.16.44.3.75.43.92.23.33.48.53.74.6a2 2 0 00.94-.03l14.27-3.37c.34-.08.61-.2.8-.36.2-.15.35-.45.44-.9a11.1 11.1 0 00.01-2.17l1.12-.26 4.23 17.94z" fill="#a41206"/><path d="M598.9 385.03c-1.17.15-2.2.05-3.11-.32a5.72 5.72 0 01-2.3-1.7 9.42 9.42 0 01-1.58-2.83 17.6 17.6 0 01-.87-3.71l-.23-1.69-5.79.79c-.35.04-.64.15-.89.3-.23.18-.4.46-.5.85a11.4 11.4 0 00-.14 2.1l-1.14.15-1.51-11.16 1.13-.15.27 1.1c.12.45.23.77.33.94.2.36.43.58.67.67.24.1.56.11.95.06l14.53-1.96c.34-.05.63-.15.85-.3.24-.15.41-.43.52-.84a13.72 13.72 0 00.21-2.16l1.14-.15 1.53 11.37c.36 2.66.2 4.7-.47 6.14-.66 1.43-1.86 2.26-3.6 2.5zm-1.51-5.56c1.55-.21 2.65-.68 3.31-1.41.67-.72.9-1.88.68-3.48l-.16-1.2-9.04 1.22.08.6c.21 1.6.74 2.75 1.58 3.48.84.73 2.03 1 3.55.79zM583 396.25a12.3 12.3 0 01.57-4.3 9.74 9.74 0 015.33-5.97c1.33-.6 2.81-.94 4.43-1 1.61-.06 3.11.16 4.5.66a10.28 10.28 0 016.08 5.73 12.2 12.2 0 01-.16 10.05l.84.88.05 1.27-7.58.43-.05-1.3c2.29-.81 3.95-1.76 5-2.82a4.97 4.97 0 001.48-3.81 4.59 4.59 0 00-2.6-4.1c-1.64-.89-3.92-1.28-6.84-1.17-1.65.06-3.05.28-4.21.65a8.74 8.74 0 00-2.76 1.4 5.25 5.25 0 00-1.56 2.06 6.26 6.26 0 00-.42 2.58 6.22 6.22 0 001.25 3.6 10.33 10.33 0 003.48 2.8l-.71 1.29c-.87-.39-1.66-.84-2.37-1.35-.7-.5-1.3-1.1-1.81-1.79a9.63 9.63 0 01-1.94-5.79z" fill="#a41206"/><path d="M582.07 428.83l.8-11.12 1.13.08.01 1.08c.02.47.06.8.12.97.12.38.3.64.52.79.23.15.54.24.9.27l12.12.87-10.9-10.15a3.01 3.01 0 00-1.35.1c-.22.11-.43.35-.62.7-.1.2-.21.51-.33.94-.11.44-.19.8-.23 1.07l-1.14-.08.8-11.07 1.14.08v1.07c.03.48.08.83.14 1.05.1.36.27.62.52.77.25.16.55.25.9.28l14.67 1.05c.34.02.63-.02.88-.13.24-.1.46-.34.66-.7.15-.28.29-.64.42-1.09.14-.45.23-.78.26-.98l1.14.08-.8 11.12-1.14-.08a9.83 9.83 0 00-.21-2.07c-.1-.4-.3-.66-.56-.8a2.21 2.21 0 00-.87-.24l-11.86-.85 10.9 10.15c.5.03.87-.01 1.08-.15.23-.13.43-.36.61-.69a4 4 0 00.41-1.01c.12-.4.2-.72.26-.98l1.14.08-.8 11.08-1.13-.08a10.52 10.52 0 00-.22-2.13c-.1-.38-.28-.65-.54-.8a2.1 2.1 0 00-.88-.25l-14.68-1.05c-.35-.02-.65.02-.9.13-.26.1-.48.34-.67.7-.12.23-.23.56-.34.99-.11.44-.18.8-.22 1.08z" fill="#a41206"/><path d="M593.1 448.2l.2-1.12c.93-.13 1.95-.44 3.08-.92 1.11-.47 1.76-.98 1.94-1.52a21.03 21.03 0 00.57-2.28l.12-.68-16.04-2.93a2.2 2.2 0 00-.95.01c-.29.08-.54.29-.76.63-.12.2-.28.53-.46.97-.17.45-.3.84-.4 1.16l-1.13-.2 2.09-11.4 1.12.2-.1 1.2c-.03.51-.03.87.02 1.07.08.4.24.69.48.86.23.17.53.29.89.35l16.18 2.97.12-.68a18.94 18.94 0 00.28-2.33c.02-.57-.4-1.28-1.28-2.13a12.93 12.93 0 00-2.55-1.94l.2-1.1 5.85 1.06-3.62 19.81z" fill="#a41206"/><path d="M588.68 465.4l.3-1.07a7.8 7.8 0 002.72-.75 3.95 3.95 0 001.94-1.6c.15-.26.3-.64.45-1.14.16-.5.29-.9.38-1.24l.83-2.9-7.72-2.2-.59 2.06c-.14.52-.22 1-.22 1.46 0 .46.13.91.38 1.36.15.28.47.6.96.97.48.38.91.66 1.3.84l-.31 1.07-8.34-2.37.3-1.07c.42.05.95.05 1.6-.02a4.2 4.2 0 001.43-.3c.43-.2.76-.5 1-.9.26-.38.46-.85.62-1.4l.59-2.06-5.77-1.64a6.36 6.36 0 00-1.47-.28c-.37 0-.69.08-.95.28a2.1 2.1 0 00-.62.85c-.18.4-.36.95-.56 1.66-.1.32-.2.72-.33 1.18a11.42 11.42 0 00-.36 2.4c0 .37.06.67.19.89.33.58.89 1.29 1.67 2.12.78.83 1.39 1.4 1.8 1.72l-.29 1.03-6.12-2.16 5.34-18.75 1.1.31-.2 1.1c-.06.47-.09.81-.07 1.02.05.4.17.7.36.88.2.19.48.33.84.43l14.1 4.02a2 2 0 00.88.08c.25-.04.52-.23.82-.57.18-.22.38-.53.6-.94.22-.42.37-.73.47-.95l1.1.31-5.05 17.72z" fill="#a41206"/><path d="M580.52 484.3l.41-1.04c.94.04 2-.07 3.2-.32 1.18-.25 1.92-.62 2.2-1.12a19 19 0 00.99-2.13l.25-.64-15.18-5.96a2.18 2.18 0 00-.94-.16c-.3.02-.58.18-.86.46-.16.18-.37.47-.64.87l-.62 1.06-1.06-.41 4.23-10.8 1.06.43-.32 1.14c-.13.5-.2.86-.2 1.06.02.41.11.73.31.94.2.21.47.39.8.52l15.32 6 .25-.63a18.95 18.95 0 00.72-2.24c.14-.55-.15-1.33-.85-2.33-.7-.99-1.41-1.79-2.13-2.4l.42-1.04 5.53 2.17-7.35 18.75z" fill="#a41206"/><path d="M244.09 528.4l-5.15-7.62.93-.63.44.48c.19.18.39.32.6.42.25.12.49.16.71.13.23-.04.51-.17.84-.39l5.95-4.01-9.38-1.02-.04.02c-.3.2-.52.4-.65.61-.12.2-.17.44-.14.72.01.18.07.4.16.62.1.24.22.47.34.7l-.92.62-5.15-7.63.92-.62a9.18 9.18 0 001 1.06c.27.2.53.3.8.26.26-.03.54-.15.86-.36l7.93-5.35c.3-.2.5-.42.63-.66.14-.25.17-.53.08-.85a3.6 3.6 0 00-.29-.69l-.32-.62.92-.62 5.14 7.62-.92.63a6.27 6.27 0 00-.48-.5 2.28 2.28 0 00-.56-.4c-.25-.13-.5-.16-.76-.11-.25.06-.52.18-.8.37l-5.94 4.01 9.38 1.02.04-.02c.3-.2.5-.41.63-.61s.19-.44.16-.72a1.78 1.78 0 00-.21-.7l-.3-.61.93-.63 5.15 7.63-.92.62a5.09 5.09 0 00-1-1.06 1.1 1.1 0 00-.78-.26 1.9 1.9 0 00-.88.36l-7.93 5.35c-.3.2-.53.43-.67.67-.13.25-.14.53-.04.84a5.5 5.5 0 00.61 1.31z" fill="#fff"/><path d="M259.25 546.19l-6.17-7.22.84-.72.56.53c.2.17.38.3.55.4.3.18.57.24.82.18.27-.06.54-.22.83-.46l7.7-6.59-.29-.34-12.64 4.73-1.35-1.59 6.76-11.62-.31-.36-7.34 6.28a3 3 0 00-.79.93c-.13.3-.15.6-.06.9.06.22.16.45.28.67.13.23.27.45.43.66l-.85.72-3.95-4.62.84-.72.51.5c.19.17.37.31.53.4a1 1 0 00.87.1c.32-.09.67-.3 1.06-.64l6.84-5.85c.3-.25.5-.51.59-.78.1-.27.1-.56 0-.85a2.66 2.66 0 00-.32-.74l-.37-.6.85-.71 5.64 6.59-4.8 8.06 6.9-2.62c.38-.14.74-.31 1.1-.5.36-.2.6-.33.68-.4l5.53 6.47-.84.72a5 5 0 00-1.1-.94 1.1 1.1 0 00-.81-.17c-.27.05-.54.2-.84.45l-7.26 6.21c-.28.24-.47.49-.59.75-.1.25-.08.53.06.83a5.65 5.65 0 00.75 1.24z" fill="#fff"/><path d="M273.4 554.54c-.66.17-1.35.27-2.07.29a8.13 8.13 0 01-2.13-.23 8.46 8.46 0 01-4.02-2.23 10.7 10.7 0 01-2.37-3.15 6.94 6.94 0 01-.15-6.03 9.55 9.55 0 011.84-2.66 7.93 7.93 0 015.38-2.45c.99-.05 2.02.13 3.08.53a8.95 8.95 0 013 1.96 10 10 0 012.16 2.78c.42.88.64 1.75.65 2.6.01.81-.15 1.6-.51 2.35a7.62 7.62 0 01-1.42 2.04l-.68.72-7.4-7.1c-1.44 1.5-2.24 2.91-2.41 4.25-.18 1.33.37 2.6 1.62 3.8a4.46 4.46 0 002.39 1.22c.91.14 1.84.11 2.78-.1zm-.2-8.17c.42-.44.82-.91 1.22-1.41.4-.5.68-.96.85-1.35.2-.47.28-.89.23-1.27a1.7 1.7 0 00-.56-1.04c-.56-.54-1.28-.69-2.16-.44-.88.25-1.93.97-3.14 2.18z" fill="#fff"/><path d="M286.85 569.93l-7.22-5.74.7-.86.56.31c.23.12.46.2.7.22.27.04.5.01.7-.09.22-.1.44-.3.69-.62l2.7-3.4-4.43-3.53-2.71 3.4a2.3 2.3 0 00-.43.79c-.06.24-.05.49.05.74a4.3 4.3 0 00.81 1.1l-.69.87-7.21-5.74.68-.86.64.4c.24.14.44.24.62.3.32.12.6.12.84.02.24-.11.48-.3.71-.6l5.93-7.45c.22-.28.35-.56.4-.83.06-.27 0-.54-.18-.82a3.53 3.53 0 00-.48-.57l-.5-.5.7-.86 7.2 5.74-.68.86a6.5 6.5 0 00-.61-.33c-.18-.1-.4-.16-.65-.2a1.13 1.13 0 00-.75.11c-.22.14-.44.34-.65.6l-2.17 2.73 4.44 3.52 2.17-2.73c.21-.26.35-.5.42-.75.08-.24.07-.5-.04-.77-.08-.2-.2-.4-.37-.6-.16-.2-.3-.36-.44-.5l.7-.87 7.2 5.74-.68.86a5.03 5.03 0 00-1.26-.7 1.1 1.1 0 00-.82-.02c-.25.1-.5.3-.73.6l-5.92 7.45c-.23.29-.37.57-.44.84-.04.27.03.54.21.8a5.62 5.62 0 00.98 1.07z" fill="#fff"/><path d="M304.43 580.98l-7.74-4.95.6-.94.59.26c.24.1.48.14.72.15.28.01.51-.04.7-.17.2-.12.4-.35.62-.68l3.86-6.04-9 2.78-.03.04c-.2.3-.32.58-.36.82-.03.23.02.47.16.71.09.17.22.34.4.5.19.18.38.35.58.5l-.6.95-7.74-4.96.6-.93.68.34c.24.11.46.19.65.24.33.08.61.05.84-.08.23-.13.44-.35.64-.67l5.15-8.05c.2-.3.3-.59.32-.86a1 1 0 00-.26-.8 3.56 3.56 0 00-.54-.52l-.54-.45.6-.93 7.73 4.95-.6.94c-.22-.1-.43-.2-.64-.27a2.47 2.47 0 00-.67-.14 1.1 1.1 0 00-.73.2c-.21.15-.4.37-.59.65l-3.86 6.04 9-2.78.03-.04c.2-.3.3-.58.34-.81.04-.24 0-.48-.14-.72-.1-.2-.26-.39-.47-.56l-.5-.45.59-.94 7.74 4.96-.6.93-.68-.34c-.19-.09-.4-.16-.64-.24a1.1 1.1 0 00-.83.07c-.23.13-.46.36-.66.68l-5.15 8.05c-.2.3-.31.6-.35.88-.02.27.08.54.3.78a5.72 5.72 0 001.08.97zm23.21 3.97c.64-1.43.72-2.7.25-3.81-.47-1.12-1.46-2.02-2.98-2.7a20.84 20.84 0 00-1.34-.54l-3.4 7.55c-.07.4.05.8.37 1.23.34.42.81.76 1.42 1.04 1.1.5 2.17.5 3.2.03a5.26 5.26 0 002.48-2.8zm5.57 2.26a5.66 5.66 0 01-1.82 2.32c-.77.57-1.63.94-2.6 1.1-.93.15-1.88.15-2.86-.01a11.3 11.3 0 01-2.85-.87l-11.84-5.31.49-1.08 1.12.36c.47.15.8.22 1.02.23.39.02.7-.06.93-.23.24-.17.43-.44.6-.8l6.23-13.9c.15-.31.2-.61.2-.9 0-.29-.16-.6-.45-.91a13.07 13.07 0 00-1.78-1.38l.49-1.09 17.58 7.9-2.53 5.63-1.07-.48a13.2 13.2 0 00-.27-3.55c-.23-1.11-.58-1.8-1.02-2.1a18.34 18.34 0 00-2.15-1.16l-3.29-1.48-3.15 7.02 1.43.6a23.99 23.99 0 014.75 2.43 9.62 9.62 0 012.27 2.19 5.21 5.21 0 01.58 5.48zm4.96 5.55a2.84 2.84 0 01-1.54 1.67c-.76.35-1.51.4-2.28.13a2.97 2.97 0 01-.3-5.5c.76-.36 1.53-.4 2.3-.12.76.27 1.32.78 1.68 1.54.36.77.4 1.53.14 2.28zm18.01 1.29c.4-1.51.29-2.78-.36-3.8-.64-1.04-1.76-1.77-3.37-2.2l-.74-.16-.67-.15-2.14 8c-.02.4.17.79.55 1.15.4.36.92.63 1.57.8 1.17.31 2.22.15 3.15-.48a5.26 5.26 0 002.01-3.16zm5.87 1.34a5.65 5.65 0 01-1.44 2.58 6.02 6.02 0 01-2.38 1.5c-.9.3-1.84.45-2.83.45-.98 0-1.96-.13-2.95-.4l-12.54-3.35.31-1.15c.3.05.68.1 1.16.19.49.06.84.08 1.04.05.4-.04.69-.17.9-.37.2-.21.35-.5.45-.89l3.94-14.71c.09-.34.1-.64.04-.92-.05-.29-.25-.56-.58-.83a13.16 13.16 0 00-1.98-1.08l.3-1.15 18.63 4.98-1.6 5.97-1.13-.3a13.2 13.2 0 00-.84-3.47c-.4-1.06-.86-1.7-1.35-1.9a15.2 15.2 0 00-2.3-.81l-3.48-.93-2 7.43a146.38 146.38 0 003.12.74c1.3.35 2.46.77 3.47 1.26a9.64 9.64 0 012.6 1.8 5.22 5.22 0 011.44 5.32zm5.74 4.68a2.83 2.83 0 01-1.26 1.89c-.69.47-1.43.64-2.23.49a2.96 2.96 0 01-1.94-1.24 2.87 2.87 0 01-.48-2.22 2.8 2.8 0 011.24-1.9c.7-.49 1.45-.65 2.26-.5.8.14 1.43.56 1.9 1.26.48.7.65 1.43.5 2.22zm29.72-9.87l-1.2-.09c-.09-.35-.25-.82-.5-1.41a12.2 12.2 0 00-1.82-3.06 2.2 2.2 0 00-1.1-.72 20.89 20.89 0 00-2.62-.35l-3.08-.22-1.2 17.04c-.02.38.04.7.18.98.15.26.39.48.72.64.2.1.54.2.99.32l1.4.3-.08 1.18-12-.84.09-1.18 1.18-.04c.49-.03.84-.08 1.03-.15.38-.11.65-.3.8-.54a2 2 0 00.29-.96l1.06-15.23c.03-.34-.02-.64-.13-.9-.1-.28-.35-.52-.73-.72a13.03 13.03 0 00-2.15-.69l.08-1.18 19.24 1.35zm13.65 1.41a6.97 6.97 0 011.77 2.48c.41.97.63 2.02.65 3.15a8.64 8.64 0 01-.53 3.2 6.8 6.8 0 01-1.65 2.6 8.18 8.18 0 01-2.84 1.8 11 11 0 01-3.8.7c-1.23.02-2.37-.14-3.43-.47a8.04 8.04 0 01-2.78-1.54 7.28 7.28 0 01-1.88-2.48 8.2 8.2 0 01-.73-3.35 7.36 7.36 0 014.96-7.53 10.9 10.9 0 013.69-.66 10.6 10.6 0 013.75.52 8 8 0 012.82 1.58zm-3.69 10.63a8.6 8.6 0 00.45-2.08 21.17 21.17 0 00-.1-5.27 9.02 9.02 0 00-.5-2.15 3.58 3.58 0 00-1.04-1.49 2.42 2.42 0 00-1.64-.51c-.72.01-1.3.22-1.72.63-.42.4-.74.92-.96 1.55-.2.59-.34 1.27-.4 2.05a29.13 29.13 0 00.09 5.17c.08.72.27 1.45.56 2.17.24.62.59 1.11 1.03 1.47.45.36 1 .53 1.67.52a2.5 2.5 0 001.56-.54 3.4 3.4 0 001-1.52z" fill="#fff"/><path d="M431.74 595.1a7.78 7.78 0 01-1.48 5.72 7.11 7.11 0 01-5.12 2.93c-.96.11-1.76.1-2.39-.02a5.35 5.35 0 01-1.58-.53h-.12l.5 4.25c.05.36.16.66.35.9.19.24.43.4.73.5a10.97 10.97 0 002.46.18l.13 1.11-10.9 1.3-.14-1.1a13.57 13.57 0 001.78-.51c.3-.15.5-.37.58-.65.09-.28.11-.6.07-.93l-1.85-15.46a2.36 2.36 0 00-.35-.84 1.74 1.74 0 00-.67-.6 2.6 2.6 0 00-.84-.22 5.85 5.85 0 00-1-.06l-.13-1.1 7.3-1.28.26.17.2 1.68.12.01a7.54 7.54 0 012.02-1.83 5.84 5.84 0 012.35-.85 6.08 6.08 0 015.2 1.62c1.4 1.33 2.23 3.2 2.52 5.6zm-5.42.7c-.09-.75-.23-1.46-.42-2.14a6.14 6.14 0 00-.82-1.78c-.33-.51-.75-.9-1.24-1.17a2.72 2.72 0 00-1.69-.29 3.09 3.09 0 00-2.45 1.54l1.03 8.56a4.53 4.53 0 001.04 1.44 2.6 2.6 0 002.02.57c1-.12 1.73-.75 2.2-1.89.47-1.15.58-2.76.33-4.84z" fill="#fff"/><path d="M445.29 585.95a6.98 6.98 0 012.21 2.09 8.63 8.63 0 011.36 6.21c-.17 1.05-.54 2-1.12 2.86a8.17 8.17 0 01-2.44 2.32c-1 .63-2.19 1.1-3.59 1.4-1.2.27-2.36.34-3.45.22a8.03 8.03 0 01-3.04-.98 7.27 7.27 0 01-2.31-2.06 8.18 8.18 0 01-1.37-3.15 7.38 7.38 0 013.41-8.34c1-.62 2.16-1.08 3.48-1.37 1.4-.3 2.65-.37 3.79-.21 1.14.14 2.16.48 3.07 1zm-1.56 11.13c.1-.6.1-1.31.03-2.13a21.05 21.05 0 00-1.1-5.14c-.3-.87-.6-1.54-.91-2.02a3.48 3.48 0 00-1.32-1.25 2.41 2.41 0 00-1.7-.19c-.7.16-1.23.47-1.57.95a3.91 3.91 0 00-.64 1.71c-.09.61-.08 1.3 0 2.09a29.16 29.16 0 001.09 5.06c.22.69.54 1.36.97 2.01.36.57.79.98 1.3 1.25.5.26 1.08.32 1.73.18a2.5 2.5 0 001.43-.83c.35-.43.58-1 .69-1.69z" fill="#fff"/><path d="M451.34 596.51c.54-1.58.83-3.5.89-5.75a17 17 0 00-.53-5.28c-.15-.46-.32-.8-.5-.99a1.3 1.3 0 00-.76-.36 3.54 3.54 0 00-.98.02c-.45.05-.8.1-1.07.15l-.34-1.06 14.6-4.64.34 1.06a5.24 5.24 0 00-1.3.65c-.25.18-.4.4-.47.68-.05.26-.02.58.1.94l2.86 9c.16.52.35.86.56 1.04.22.17.64.15 1.28-.05l1.17-.38 1.9 5.98-.93.3c-.24-.3-.52-.62-.85-1a9.43 9.43 0 00-3.06-2.19 2.97 2.97 0 00-1.77-.14 71.77 71.77 0 00-2.32.67l-2.67.86a53.48 53.48 0 00-2.3.79c-.54.22-.98.6-1.33 1.14a7.55 7.55 0 00-.84 1.74 9.9 9.9 0 00-.42 1.8l-.13 1.3-.93.3-1.91-6.03zm1.84-.58l5.44-1.73c.5-.15.8-.33.92-.53.11-.2.11-.5-.02-.89l-3.36-10.58-3.29 1.04c.6 1.98.96 4.11 1.05 6.4.1 2.3-.15 4.39-.74 6.29z" fill="#fff"/><path d="M476.77 574.43c.97.35 1.82.9 2.56 1.64a8.33 8.33 0 011.79 2.68c.43 1.04.67 2.1.7 3.17a6.9 6.9 0 01-.58 3.02 8.18 8.18 0 01-1.96 2.73c-.86.8-1.95 1.49-3.27 2.05-1.14.48-2.26.76-3.36.84a8.04 8.04 0 01-3.16-.4 7.27 7.27 0 01-2.66-1.6 8.2 8.2 0 01-1.93-2.83 8.49 8.49 0 01-.73-3.21 7.33 7.33 0 012.55-5.62c.86-.8 1.92-1.46 3.17-1.99 1.3-.55 2.53-.86 3.68-.91a8 8 0 013.2.43zm.53 11.22a8.64 8.64 0 00-.36-2.1 20.99 20.99 0 00-2.04-4.84 9.36 9.36 0 00-1.26-1.82 3.66 3.66 0 00-1.53-.99 2.41 2.41 0 00-1.71.13c-.66.29-1.12.7-1.37 1.23a3.9 3.9 0 00-.3 1.8 8 8 0 00.38 2.05 29.45 29.45 0 002 4.77 8.6 8.6 0 001.33 1.8c.46.49.96.81 1.5.98a2.5 2.5 0 001.74-.14c.56-.24.98-.6 1.25-1.08.27-.48.39-1.08.37-1.79z" fill="#fff"/><path d="M492.87 576.04a2.84 2.84 0 00-1.59-1.43c-.67-.23-1.47-.1-2.4.4-.37.19-.65.35-.85.48-.2.12-.36.23-.52.3l2.28 4.28c.2.36.45.58.78.65.33.07.74-.03 1.24-.3.52-.27.9-.6 1.17-.95.27-.36.42-.74.46-1.14.04-.39 0-.76-.1-1.13-.1-.38-.26-.77-.47-1.16zm4.89-2.32c.36.67.5 1.33.45 1.98a3.94 3.94 0 01-.68 1.84c-.43.63-.96 1.2-1.6 1.71-.63.5-1.42 1-2.37 1.51a295.3 295.3 0 01-5.26 2.76c-1.25.63-2.5 1.29-3.79 1.97l-.52-.98c.22-.13.43-.28.64-.42.2-.16.38-.31.51-.45.24-.25.35-.5.35-.77 0-.26-.1-.56-.27-.89l-4.49-8.4a1.86 1.86 0 00-.6-.7c-.22-.17-.5-.22-.82-.17a5.2 5.2 0 00-.72.21l-.65.27-.52-.98c1.87-1 3.48-1.87 4.83-2.62s2.69-1.48 4-2.18c.75-.4 1.5-.73 2.23-.99a7.44 7.44 0 012.06-.46 3.5 3.5 0 011.72.3c.53.24.95.65 1.26 1.24.48.88.56 1.74.26 2.58-.3.82-.91 1.6-1.83 2.33l.1.2c.55-.2 1.1-.37 1.66-.48a4.8 4.8 0 011.57-.12c.52.06 1 .22 1.41.49.42.27.78.67 1.07 1.22zm-8.74-3.68a2.72 2.72 0 00-.8-.98 1.78 1.78 0 00-.86-.37c-.31-.04-.63 0-.95.09a4.86 4.86 0 00-1.44.7l-.63.38 2.56 4.79 1.08-.58a3.6 3.6 0 001.11-.85c.27-.32.43-.65.47-1a2.4 2.4 0 00-.08-1.02 5.58 5.58 0 00-.46-1.16zm28.14-4.64l-7.61 5.15-.62-.92.47-.45c.18-.18.32-.38.42-.6.12-.25.16-.49.12-.7a2.17 2.17 0 00-.38-.85l-4.01-5.94-1.02 9.37.03.04c.2.3.4.52.6.66.2.12.45.16.72.14.19-.02.4-.07.63-.17.23-.1.46-.22.69-.34l.62.92-7.61 5.15-.63-.92c.2-.16.4-.32.6-.5.19-.17.34-.34.46-.5.2-.27.3-.53.27-.8a1.96 1.96 0 00-.36-.85l-5.35-7.92c-.2-.3-.42-.5-.67-.63a1.03 1.03 0 00-.84-.08c-.26.08-.5.18-.69.28l-.62.33-.62-.92 7.61-5.14.62.92a7.7 7.7 0 00-.5.48c-.14.15-.27.34-.39.56-.13.25-.17.5-.11.76.06.25.18.52.37.8l4.01 5.93 1.02-9.37-.03-.04c-.2-.3-.4-.51-.61-.63-.2-.13-.44-.19-.72-.16-.22.01-.45.09-.7.21l-.61.3-.62-.93 7.61-5.14.63.92c-.25.18-.44.35-.6.49-.14.13-.3.3-.46.5-.2.24-.28.5-.26.78.02.27.14.56.35.88l5.35 7.92c.2.3.43.52.67.66.25.13.53.15.84.04a5.5 5.5 0 001.31-.6z" fill="#fff"/><path d="M531.67 553.04l-5.44 4.52a28.5 28.5 0 00-3.53-2.57 4.77 4.77 0 00-2.22-.8c-.66-.05-1.4.25-2.22.9l2.61 3.14c.23.28.46.47.68.58.23.12.48.15.74.1a4.52 4.52 0 001.25-.56l.71.85-7.12 5.92-.71-.85.54-.55c.17-.2.31-.38.42-.54.17-.3.24-.57.18-.83s-.2-.53-.44-.82l-6.12-7.36a1.87 1.87 0 00-.73-.56 1.03 1.03 0 00-.84 0 13.19 13.19 0 00-1.25.74l-.7-.85 7.11-5.92.72.86c-.17.18-.32.35-.45.53-.13.16-.25.36-.34.6-.1.25-.12.5-.04.76.09.25.24.5.45.76l2.55 3.06.54-.44c.38-.32.66-.62.83-.91.17-.3.23-.6.2-.93a6.17 6.17 0 00-.36-1.48c-.16-.44-.34-.86-.52-1.27a9.4 9.4 0 01-.48-1.32 5.5 5.5 0 01-.2-1.52c0-.55.12-1.06.36-1.52.23-.47.6-.91 1.09-1.32.4-.35.8-.57 1.2-.68a2.4 2.4 0 011.04-.12c.34.04.64.14.9.3.25.16.48.36.68.6.52.62.74 1.23.66 1.84a2.2 2.2 0 01-.8 1.48c-.4.33-.9.53-1.48.59-.57.06-1.12.04-1.65-.05-.09.25-.09.55.01.88.1.32.2.66.33 1.02l.36 1.12c.11.36.15.73.1 1.13a5.24 5.24 0 012.86-.71c.98.03 1.9.27 2.76.72a286.04 286.04 0 012.3 1.17c.42.2.78.29 1.1.24.3-.05.5-.12.64-.2l.53-.28.48-.3z" fill="#fff"/><path d="M532.63 533.01a6.95 6.95 0 012.98.54c.97.4 1.86 1 2.66 1.8a8.6 8.6 0 011.86 2.65 7 7 0 01.62 3 8.15 8.15 0 01-.77 3.27 10.95 10.95 0 01-2.23 3.12 10.6 10.6 0 01-2.78 2.06c-.97.49-2 .77-3.06.84a7.23 7.23 0 01-3.06-.46 8.15 8.15 0 01-2.85-1.88 7.34 7.34 0 01-1.7-8.83 10.9 10.9 0 012.17-3.04c1-1 2-1.75 3.04-2.24a8 8 0 013.12-.83zm4.76 10.15a8.58 8.58 0 00-1.13-1.8 20.86 20.86 0 00-3.73-3.69 8.97 8.97 0 00-1.85-1.19 3.57 3.57 0 00-1.79-.33 2.4 2.4 0 00-1.52.77 2.48 2.48 0 00-.8 1.65c-.02.58.12 1.17.4 1.78.26.55.64 1.13 1.14 1.74a29.35 29.35 0 003.66 3.63c.56.45 1.2.84 1.9 1.16.62.27 1.2.38 1.77.33a2.5 2.5 0 001.55-.8c.43-.43.67-.92.74-1.46a3.41 3.41 0 00-.34-1.79z" fill="#fff"/><path d="M548.09 528.24a2.85 2.85 0 00-2.01-.72c-.72.03-1.42.46-2.1 1.27l-.6.77c-.13.2-.25.36-.36.49l3.74 3.1c.31.26.63.37.97.32.32-.06.67-.31 1.03-.75.38-.45.62-.9.73-1.33.12-.44.11-.85 0-1.23a3.1 3.1 0 00-.53-1.02 5.48 5.48 0 00-.87-.9zm3.67-4c.58.48.97 1.04 1.17 1.66.18.62.2 1.28.06 1.97a8.02 8.02 0 01-.84 2.2c-.4.7-.94 1.47-1.63 2.3a297.1 297.1 0 01-3.85 4.56c-.92 1.06-1.84 2.14-2.77 3.26l-.85-.71.43-.64c.13-.22.24-.43.3-.6.13-.33.14-.61.04-.85-.1-.25-.3-.49-.59-.73l-7.36-6.11a1.87 1.87 0 00-.81-.43 1.03 1.03 0 00-.83.17c-.23.15-.43.3-.59.46l-.5.5-.86-.72a412.4 412.4 0 003.5-4.26c.97-1.21 1.93-2.4 2.89-3.54.54-.66 1.1-1.25 1.7-1.76a7.48 7.48 0 011.73-1.21 3.6 3.6 0 011.72-.38 2.7 2.7 0 011.64.67 3.1 3.1 0 011.22 2.3 5.5 5.5 0 01-.82 2.87l.18.15c.42-.4.88-.76 1.35-1.08.47-.33.95-.57 1.42-.7.5-.15 1-.18 1.5-.09.49.1.97.34 1.45.73zm-9.52-.11c-.4-.33-.77-.54-1.12-.61-.35-.1-.66-.1-.93-.03-.31.09-.6.24-.85.45a4.85 4.85 0 00-1.08 1.2l-.44.59 4.2 3.48.78-.95c.35-.41.58-.82.71-1.21.13-.4.15-.76.05-1.1a2.36 2.36 0 00-.45-.92 5.2 5.2 0 00-.87-.9zm22.45-12.23c-.1.48-.25 1.02-.46 1.61a7 7 0 01-.89 1.74 5.37 5.37 0 01-2 1.96c-.65.27-1.31.3-2 .09l-.06.07c.1.48.15.92.17 1.33a6.89 6.89 0 01-1.35 4.22 4.56 4.56 0 01-2.56 1.9c-1.04.3-2.04.12-2.98-.53a4.5 4.5 0 01-1.23-1.17 4.07 4.07 0 01-.65-2.66c.05-.46.14-.93.26-1.43.24-.94.57-2.04 1-3.3.42-1.26.68-2.2.78-2.85l-1.2-.83c-.21-.14-.5-.32-.87-.52-.36-.2-.7-.33-1.01-.38a2 2 0 00-1.06.09c-.35.13-.67.4-.95.8-.25.37-.41.72-.47 1.04-.07.32-.1.58-.1.8.19.1.5.2.92.32.42.12.79.29 1.1.5.15.1.3.26.47.49.16.21.25.44.28.67.04.3.02.61-.06.92-.07.3-.27.69-.6 1.18-.49.7-1.02 1.12-1.6 1.25-.6.13-1.16 0-1.7-.37a2.1 2.1 0 01-.88-1.41c-.12-.64-.12-1.3.01-2a12.03 12.03 0 011.77-4.28c.55-.8 1.1-1.52 1.67-2.13a6.28 6.28 0 011.85-1.42 3.8 3.8 0 012.12-.36c.77.07 1.6.41 2.5 1.02.94.65 2.05 1.44 3.31 2.37 1.28.92 2.12 1.53 2.53 1.8.38.26.71.41 1 .45.3.04.58-.03.85-.19.17-.1.36-.29.58-.58.23-.3.42-.58.6-.83zm-10.82 1.77c-.16.57-.3 1.16-.4 1.77a6.5 6.5 0 00-.13 1.57c.02.47.16.92.4 1.34.24.43.61.8 1.1 1.14.66.45 1.23.63 1.72.54.5-.1.9-.37 1.2-.8.31-.47.48-.9.5-1.33.01-.43-.04-.85-.16-1.27z" fill="#fff"/><path d="M402.35 263.83c-44.28 55.17 0 109.93 0 109.93s44.3-54.76 0-109.93z" stroke-miterlimit="10" fill="#fff" stroke="#000" stroke-linecap="round"/><path d="M453.92 270.08c-12.85 9.1-27.98 17.97-27.13 29.85 1.8 25.48-.46 49.06-7.23 62.14-3.98 7.69 4.07 13.7 4.07 13.7s57.66-40.45 30.29-105.69z" stroke-miterlimit="10" fill="#fff" stroke="#000" stroke-linecap="round"/><path d="M501.55 280.87c-15.55 2.36-27.9 13.25-32.47 24.25-3.94 9.5-6.91 27.65-10.66 37.26-5.63 14.28-13.6 18.95-20.74 24.14-7.12 5.18-2.5 14.07-2.5 14.07s42.6-13.54 60.8-39.96c10.46-15.2 3.85-34 5.57-59.76zm-1.17 75.55c-9.26 4.41-12.33 6.05-20.45 9.44-4.03 1.73-16.88 7.78-25.27 9.5-7.58 1.52-16.37 6.73-18.14 7.78-.12.06-.23.13-.33.2l5.7-.77a41.4 41.4 0 0110.08 2.53c13.47 4.93 36.86 17.18 53.1 13.6 18.03-3.97 21.46-12.46 40.3-30.13-13-8.85-35.67-16.59-45-12.15zm-116.33 7.56c-6.75-13.09-9.03-36.67-7.23-62.15.87-11.88-14.29-20.74-27.13-29.84-27.37 65.23 30.29 105.69 30.29 105.69s8.05-6.02 4.07-13.7z" stroke-miterlimit="10" fill="#fff" stroke="#000" stroke-linecap="round"/><path d="M365.91 368.42c-7.12-5.19-15.1-9.86-20.74-24.13-3.78-9.61-6.73-27.77-10.66-37.27-4.56-11-16.91-21.88-32.47-24.25 1.72 25.77-4.9 44.55 5.57 59.76 18.2 26.43 60.77 39.96 60.77 39.96s4.53-8.98-2.47-14.07zm1.5 16.85c-.1-.08-.2-.15-.32-.2-1.78-1.1-10.56-6.3-18.15-7.82-8.39-1.68-21.24-7.78-25.27-9.5-8.11-3.41-11.19-5.04-20.43-9.43-9.25-4.4-31.97 3.29-45.01 12.16 18.84 17.69 22.3 26.18 40.3 30.15 16.24 3.57 39.63-8.64 53.12-13.6a40.98 40.98 0 0110.1-2.53zm34.99 3.17c9.24 22.23 20.9 38.18 35.63 44.44 28.51 12.1 61.5-1.49 61.5-1.49s-27.49-55.32-97.13-42.95z" stroke-miterlimit="10" fill="#fff" stroke="#000" stroke-linecap="round"/><path d="M305.28 431.43s32.97 13.6 61.5 1.48c14.68-6.25 26.38-22.2 35.62-44.44-69.65-12.36-97.12 42.96-97.12 42.96z" stroke-miterlimit="10" fill="#fff" stroke="#000" stroke-linecap="round"/><path d="M365.2 526.23l6.78-4.1a1.16 1.16 0 011.26 0c2.51 1.8 10.91 9.45-3.57 23.25-.73.7-2.06.08-1.8-.86 1.18-4.5 1.38-7.26.94-10.74-.34-2.85-2.48-5.07-3.75-6.15a.87.87 0 01-.29-.74.85.85 0 01.43-.66zm11.44-161.28c2.45 0 4.43-1.75 4.43-3.92s-1.98-3.92-4.43-3.92c-2.45 0-4.43 1.75-4.43 3.92s1.98 3.92 4.43 3.92zm0 21.35c2.45 0 4.43-1.75 4.43-3.92s-1.98-3.92-4.43-3.92c-2.45 0-4.43 1.75-4.43 3.92s1.98 3.92 4.43 3.92zm10.79-30.91l23.84-18.58c.08-.06.17-.1.26-.11l15.63-2.48c.55-.09.86.54.41.86L401.6 352.5a.59.59 0 01-.17.08l-13.48 3.63c-.55.14-.93-.48-.5-.81z" fill="#0c2d96"/><path d="M409.27 362.8c0 5.8-4.68 7.95-11.11 11.77-2.87 1.73-11.1 6.91-13.35 4.98-1.17-1 10.52-9.02 13.15-12.02 3.45-3.93 2.04-8.26.07-9.59-5.02-3.36-12.3 1.26-12.9.46-1.94-2.5 6.5-6.05 11.71-6.05 6.82.01 12.43 4.67 12.43 10.46z" fill="#0c2d96"/><path d="M409.64 383.94c0 5.8-4.68 7.94-11.11 11.76-2.87 1.73-11.1 6.91-13.34 4.99-1.18-1 10.51-9.02 13.14-12.02 3.45-3.93 2.05-8.27.08-9.58-5.02-3.36-12.3 1.24-12.9.45-1.94-2.5 6.49-6.04 11.7-6.04 6.87-.04 12.43 4.65 12.43 10.44z" fill="#0c2d96"/><path d="M410.18 405.15c0 5.8-4.67 7.94-11.1 11.75-2.88 1.73-11.1 6.92-13.35 4.99-1.17-1 10.52-9.05 13.17-12.02 3.45-3.92 2.05-8.27.08-9.58-5.01-3.36-12.3 1.24-12.9.46-1.94-2.5 6.49-6.05 11.7-6.05 6.84 0 12.4 4.66 12.4 10.45z" fill="#0c2d96"/><path d="M410.18 426.67c0 5.79-4.54 7.87-10.76 11.94-2.74 1.8-18.22 12.46-20.47 10.54-1.17-1 17.28-14.76 19.92-17.77 3.46-3.92 2.05-8.25.09-9.58-5.02-3.35-12.3 1.26-12.91.47-1.93-2.5 6.49-6.05 11.7-6.05 6.87-.08 12.43 4.62 12.43 10.45zm4.63 3.78s.68-.21 5.47-3.39c5.67-3.73-1-6.82 3.07-11.15a14.81 14.81 0 015.92-3.67c.7-.26 1.41-.47 2.14-.62a.7.7 0 01.87.86 20 20 0 01-2.45 4.51 6.66 6.66 0 00-1.07 5.71c1.38 5.25-2.94 8.54-6.59 8.64a27.2 27.2 0 01-7.35-.89z" fill="#0c2d96"/><path d="M378.95 449.13v20.26s2.7 2.48 4.32-.5c1.61-2.96 10.06-13.07 16.41-14.84l-.07 15.06-14.55 8.84s-2.88 2.76 1.03 3.18c3.92.43 22.31-12.4 22.31-12.4l.11-24.4s-1-.52-4.32.28c-9.61 2.34-20.39 14.89-20.39 14.89l.32-13.37z" fill="#0c2d96"/><path d="M409.27 484.62c0 5.8-4.68 7.94-11.11 11.76-2.87 1.73-11.1 6.92-13.35 4.99-1.17-1 10.52-9.02 13.15-12.03 3.45-3.92 2.04-8.26.07-9.58-5.02-3.35-12.3 1.25-12.9.47-1.93-2.5 6.5-6.05 11.71-6.05 6.85 0 12.43 4.66 12.43 10.44z" fill="#0c2d96"/><path d="M409.7 505.78c0 5.8-4.68 7.94-11.11 11.76-2.87 1.73-11.1 6.92-13.35 4.99-1.18-1 10.51-9.02 13.15-12.03 3.45-3.92 2.05-8.26.08-9.58-5.02-3.36-12.3 1.24-12.91.46-1.94-2.5 6.49-6.05 11.7-6.05 6.87-.03 12.44 4.67 12.44 10.45z" fill="#0c2d96"/><path d="M409.7 527.06c0 5.78-4.68 7.94-11.11 11.75-2.87 1.73-11.1 6.92-13.35 4.99-1.18-1 10.51-9.02 13.15-12.03 3.45-3.92 2.05-8.26.08-9.58-5.02-3.35-12.3 1.25-12.91.47-1.94-2.5 6.49-6.05 11.7-6.05 6.87-.03 12.44 4.66 12.44 10.45zm24.19-33.86s-.67-.22-5.47-3.38c-5.67-3.74 1.01-6.84-3.07-11.17a14.89 14.89 0 00-5.91-3.67c-.7-.25-1.42-.46-2.15-.62a.7.7 0 00-.86.86 19.9 19.9 0 002.45 4.51 6.65 6.65 0 011.07 5.72c-1.38 5.24 2.94 8.53 6.59 8.64a27.1 27.1 0 007.35-.9" fill="#0c2d96"/><path d="M390.92 540.97s15.06 1.65 23.63 9.26c7.62-6.65 8.22-7.14 8.22-7.14s1.36-6.71-23.1-5.97c-1.54.04-8.75 3.85-8.75 3.85z" fill="#0c2d96"/><path d="M402.35 93.41s-21.53 43.63-21.15 56.84c.52 17.87 13.22 21.27 17.16 22.54.52.16 4 .86 4 .86s3.45-.7 3.99-.86c3.94-1.27 16.64-4.67 17.16-22.54.38-13.21-21.16-56.84-21.16-56.84zm0 621.96s21.54-43.62 21.16-56.82c-.52-17.87-13.22-21.28-17.16-22.54-.52-.18-4-.87-4-.87s-3.45.7-3.99.87c-3.94 1.26-16.64 4.67-17.16 22.54-.38 13.2 21.15 56.82 21.15 56.82zM713.44 404.2s-43.62-21.54-56.83-21.15c-17.87.52-21.28 13.22-22.54 17.16-.16.52-.86 4-.86 4s.7 3.45.86 3.99c1.26 3.94 4.67 16.64 22.54 17.15 13.21.4 56.83-21.15 56.83-21.15zm-622.31 0s43.62 21.54 56.83 21.15c17.87-.51 21.28-13.21 22.54-17.15.16-.52.86-4 .86-4s-.7-3.45-.86-3.99c-1.26-3.94-4.67-16.64-22.54-17.16-13.21-.39-56.83 21.15-56.83 21.15z" fill="#a41206" stroke="#fff" stroke-width="2" stroke-linecap="round" stroke-linejoin="round"/><defs id="defs295"><linearGradient id="paint0_linear_1_2" x1="435.46" y1="143.05" x2="599.75" y2="143.05" gradientUnits="userSpaceOnUse" gradientTransform="translate(-20.06 9.47)"><stop stop-color="#FCD93C" id="stop208"/><stop offset="1" stop-color="#FF9353" id="stop210"/></linearGradient><linearGradient id="paint1_linear_1_2" x1="271.17" y1="143.05" x2="435.46" y2="143.05" gradientUnits="userSpaceOnUse" gradientTransform="translate(-20.06 9.47)"><stop stop-color="#FCD93C" id="stop213"/><stop offset="1" stop-color="#FF9353" id="stop215"/></linearGradient><linearGradient id="paint2_linear_1_2" x1="77.69" y1="321.37" x2="287.82" y2="321.37" gradientUnits="userSpaceOnUse" gradientTransform="translate(-20.06 9.47)"><stop stop-color="#FCD93C" id="stop218"/><stop offset="1" stop-color="#FF9353" id="stop220"/></linearGradient><linearGradient id="paint3_linear_1_2" x1="77.69" y1="485.66" x2="287.82" y2="485.66" gradientUnits="userSpaceOnUse" gradientTransform="translate(-20.06 9.47)"><stop stop-color="#FCD93C" id="stop223"/><stop offset="1" stop-color="#FF9353" id="stop225"/></linearGradient><linearGradient id="paint4_linear_1_2" x1="271.17" y1="656.08" x2="435.46" y2="656.08" gradientUnits="userSpaceOnUse" gradientTransform="translate(-20.06 9.47)"><stop stop-color="#FCD93C" id="stop228"/><stop offset="1" stop-color="#FF9353" id="stop230"/></linearGradient><linearGradient id="paint5_linear_1_2" x1="435.46" y1="656.08" x2="599.75" y2="656.08" gradientUnits="userSpaceOnUse" gradientTransform="translate(-20.06 9.47)"><stop stop-color="#FCD93C" id="stop233"/><stop offset="1" stop-color="#FF9353" id="stop235"/></linearGradient><linearGradient id="paint6_linear_1_2" x1="590.81" y1="483.47" x2="800.95" y2="483.47" gradientUnits="userSpaceOnUse" gradientTransform="translate(-20.06 9.47)"><stop stop-color="#FCD93C" id="stop238"/><stop offset="1" stop-color="#FF9353" id="stop240"/></linearGradient><linearGradient id="paint7_linear_1_2" x1="590.79" y1="321.32" x2="800.93" y2="321.32" gradientUnits="userSpaceOnUse" gradientTransform="translate(-20.06 9.47)"><stop stop-color="#FCD93C" id="stop243"/><stop offset="1" stop-color="#FF9353" id="stop245"/></linearGradient><linearGradient id="paint8_linear_1_2" x1="435.63" y1="213.13" x2="435.63" y2="-9.21" gradientUnits="userSpaceOnUse" gradientTransform="translate(-20.06 9.47)"><stop stop-color="#E5A700" id="stop248"/><stop offset=".18" stop-color="#E7AD00" id="stop250"/><stop offset=".43" stop-color="#ECBE00" id="stop252"/><stop offset=".71" stop-color="#F4DA00" id="stop254"/><stop offset="1" stop-color="#FF0" id="stop256"/></linearGradient><linearGradient id="paint9_linear_1_2" x1="246.07" y1="403.32" x2=".65" y2="403.32" gradientUnits="userSpaceOnUse" gradientTransform="translate(-20.06 9.47)"><stop stop-color="#E5A700" id="stop259"/><stop offset=".18" stop-color="#E7AD00" id="stop261"/><stop offset=".43" stop-color="#ECBE00" id="stop263"/><stop offset=".71" stop-color="#F4DA00" id="stop265"/><stop offset="1" stop-color="#FF0" id="stop267"/></linearGradient><linearGradient id="paint10_linear_1_2" x1="434.93" y1="587.46" x2="434.93" y2="825.68" gradientUnits="userSpaceOnUse" gradientTransform="translate(-20.06 9.47)"><stop stop-color="#E5A700" id="stop270"/><stop offset=".18" stop-color="#E7AD00" id="stop272"/><stop offset=".43" stop-color="#ECBE00" id="stop274"/><stop offset=".71" stop-color="#F4DA00" id="stop276"/><stop offset="1" stop-color="#FF0" id="stop278"/></linearGradient><linearGradient id="paint11_linear_1_2" x1="616.34" y1="403.82" x2="862.82" y2="403.82" gradientUnits="userSpaceOnUse" gradientTransform="translate(-20.06 9.47)"><stop stop-color="#E5A700" id="stop281"/><stop offset=".18" stop-color="#E7AD00" id="stop283"/><stop offset=".43" stop-color="#ECBE00" id="stop285"/><stop offset=".71" stop-color="#F4DA00" id="stop287"/><stop offset="1" stop-color="#FF0" id="stop289"/></linearGradient><clipPath id="clip0_1_2"><path id="rect292" fill="#fff" d="M0 0h2000v800H0z"/></clipPath></defs></svg>