<svg width="26" height="26" fill="none" xmlns="http://www.w3.org/2000/svg"><path d="M13 2.17a10.84 10.84 0 100 21.67 10.84 10.84 0 000-21.67zm5.03 7.36c-.17 1.71-.87 5.88-1.23 7.8-.15.8-.45 1.08-.73 1.1-.63.06-1.1-.4-1.72-.8-.95-.63-1.5-1.02-2.41-1.63-1.07-.7-.38-1.1.24-1.72.16-.16 2.93-2.69 2.99-2.92a.22.22 0 00-.06-.2c-.06-.04-.15-.02-.22-.01-.1.02-1.62 1.03-4.58 3.02-.43.3-.82.44-1.17.43a7.56 7.56 0 01-1.68-.4c-.68-.21-1.2-.33-1.17-.71.03-.2.3-.4.8-.6a485.6 485.6 0 016.32-2.72c3.01-1.25 3.63-1.47 4.04-1.47.09 0 .3.02.43.13.1.09.14.2.15.3v.4z" fill="#fff"/></svg>