<svg width="20" height="20" fill="none" xmlns="http://www.w3.org/2000/svg"><path fill-rule="evenodd" clip-rule="evenodd" d="M17.52 3.41c.34 0 .62.28.62.63v3.75c0 .34-.28.62-.62.62h-3.75a.62.62 0 110-1.25h3.12V4.04c0-.35.28-.63.63-.63z" fill="#fff"/><path fill-rule="evenodd" clip-rule="evenodd" d="M10 3.75a6.24 6.24 0 00-4.42 1.83.62.62 0 11-.88-.88 7.5 7.5 0 0110.6 0l2.66 2.65a.62.62 0 11-.89.88l-2.65-2.65A6.24 6.24 0 0010 3.75zM1.86 12.21c0-.34.28-.62.62-.62h3.75a.63.63 0 010 1.25H3.11v3.12a.62.62 0 11-1.25 0v-3.75z" fill="#fff"/><path fill-rule="evenodd" clip-rule="evenodd" d="M2.04 11.77a.63.63 0 01.89 0l2.65 2.65a6.24 6.24 0 008.84 0 .62.62 0 11.88.88 7.5 7.5 0 01-10.6 0l-2.66-2.65a.63.63 0 010-.88z" fill="#fff"/></svg>